<svg width="17" height="14" viewBox="0 0 17 14" fill="none" xmlns="http://www.w3.org/2000/svg">
<path d="M8.42189 13.0825C8.13909 12.8795 6.9379 12.0055 5.56867 10.8365C4.05128 9.54105 2.37795 7.92516 1.49166 6.479C1.49166 6.479 1.49166 6.47899 1.49166 6.47899C1.49159 6.47888 1.49153 6.47876 1.49145 6.47863L1.48478 6.46744L1.48479 6.46744C1.11676 5.85695 0.921875 5.15542 0.921875 4.43745C0.921875 2.26682 2.68869 0.5 4.85932 0.5C6.11642 0.5 7.28357 1.09713 8.0205 2.08916L8.42188 2.62947L8.82325 2.08916C9.56018 1.09714 10.7275 0.5 11.9844 0.5C14.1551 0.5 15.9219 2.26682 15.9219 4.43745C15.9219 5.15542 15.727 5.85695 15.359 6.46744L15.3588 6.46734L15.3535 6.47666L15.3534 6.4768C14.4676 7.92352 12.7934 9.54039 11.2752 10.8365C9.90578 12.0057 8.70441 12.8797 8.42189 13.0825Z" stroke="#A3A3A3"/>
</svg>
