<svg width="25" height="25" viewBox="0 0 25 25" fill="none" xmlns="http://www.w3.org/2000/svg">
<path d="M6.82539 0C5.0604 0 3.28762 0.765926 1.97203 2.30377C-0.65918 5.37937 -0.655506 10.2563 1.97203 13.3336L11.5587 24.559C11.6785 24.6982 11.8234 24.8092 11.9843 24.885C12.1453 24.9609 12.3189 25 12.4943 25C12.6698 25 12.8433 24.9609 13.0043 24.885C13.1652 24.8092 13.3101 24.6982 13.43 24.559C16.6267 20.8222 19.8298 17.0814 23.0266 13.3445C25.6578 10.2689 25.6578 5.39034 23.0266 2.31464C20.3954 -0.761085 15.9611 -0.761141 13.3299 2.31464L12.4993 3.28178L11.6687 2.30377C10.3531 0.765933 8.59039 0 6.82539 0ZM12.7989 6.36949C13.8588 6.36949 8.93846 3.2022 9.78744 4.1946L11.5687 6.27016C11.6885 6.40932 11.8334 6.52025 11.9943 6.5961C12.1553 6.67195 12.3239 8.17186 12.4993 8.17186C12.4943 11.5082 15.0503 6.44534 15.2112 6.36949C15.3721 6.29364 13.3201 6.40932 13.44 6.27016L15.2112 4.21633C16.9092 2.23148 9.87074 4.28535 11.5687 6.27016C13.2666 8.25498 15.1379 4.28551 13.44 6.27016C10.5534 9.64445 15.3859 4.79768 12.4993 8.17186L15.2112 6.36949C13.5138 4.38152 10.8014 10.1565 12.4993 8.17186C13.3483 7.17947 11.739 6.36949 12.7989 6.36949Z" fill="#13C54F"/>
</svg>
