<svg width="17" height="14" viewBox="0 0 17 14" fill="none" xmlns="http://www.w3.org/2000/svg">
<path d="M8.27407 13.4735C8.25084 13.4852 8.23446 13.4933 8.22542 13.4977L8.22492 13.498C8.2224 13.4992 8.21951 13.5 8.21574 13.5C8.21197 13.5 8.20909 13.4992 8.20657 13.498L8.20551 13.4975C8.05755 13.4249 6.10287 12.4514 4.19263 10.8412C2.26044 9.21241 0.5 7.03874 0.5 4.57692C0.5 3.25953 0.87806 2.24753 1.50615 1.56959C2.13014 0.896086 3.04891 0.5 4.24038 0.5C5.46733 0.5 6.31885 0.867368 6.94887 1.37013L5.89971 5.10099C5.79837 5.46079 5.89655 5.84889 6.15955 6.11607L7.82475 7.80769L6.15955 9.49932C5.78201 9.88285 5.76002 10.4929 6.10554 10.9033L6.1059 10.9037L8.27407 13.4735Z" stroke="#A3A3A3"/>
<path d="M8.76524 2.59211C8.77957 2.55442 8.79029 2.52882 8.79741 2.51321C9.5134 1.48639 10.5285 0.5 12.1911 0.5C13.3826 0.5 14.3014 0.896086 14.9254 1.56959C15.5535 2.24753 15.9315 3.25953 15.9315 4.57693C15.9315 6.3767 14.9928 8.02596 13.7125 9.43286C12.5674 10.6912 11.1878 11.7124 10.0905 12.4201L8.28867 10.2847L10.0069 8.53915C10.4055 8.13427 10.4055 7.48112 10.0069 7.07625L8.0419 5.08001C8.05504 5.0305 8.06969 4.97541 8.08564 4.91574C8.15639 4.65097 8.25234 4.29651 8.35339 3.93656C8.45474 3.57561 8.56003 3.2134 8.64967 2.93154C8.69471 2.78988 8.73389 2.67459 8.76524 2.59211ZM8.80181 2.5039C8.80385 2.49972 8.80489 2.4979 8.80489 2.49804C8.8049 2.49817 8.80387 2.50026 8.80181 2.5039Z" stroke="#A3A3A3"/>
</svg>
