<svg width="18" height="17" viewBox="0 0 18 17" fill="none" xmlns="http://www.w3.org/2000/svg">
<path d="M11.6386 10.076C12.2038 9.21666 12.7003 8.31398 13.1234 7.37641C13.4743 6.54309 13.6795 5.65565 13.7298 4.75284C13.7298 2.09125 11.5587 0 8.78687 0C6.01502 0 3.84392 2.09125 3.84392 4.75284C3.89428 5.65565 4.09942 6.54309 4.45038 7.37641C4.87344 8.31398 5.36992 9.21666 5.93517 10.076C2.56826 10.5532 0.421875 11.787 0.421875 13.308C0.421875 15.2585 4.01883 16.73 8.78687 16.73C13.5549 16.73 17.1519 15.2585 17.1519 13.308C17.1519 11.787 15.0055 10.5532 11.6386 10.076ZM4.60437 4.75284C4.60437 2.5133 6.44087 0.760455 8.78687 0.760455C11.1329 0.760455 12.9694 2.5133 12.9694 4.75284C12.9195 5.55079 12.7364 6.33476 12.4276 7.07223C11.4694 9.26424 9.52261 11.787 8.78687 12.7072C8.05114 11.787 6.10437 9.26424 5.1462 7.07223C4.83739 6.33476 4.65425 5.55079 4.60437 4.75284ZM8.78687 15.9695C4.3059 15.9695 1.18233 14.5665 1.18233 13.308C1.18233 12.2186 3.41426 11.1502 6.41045 10.787C7.23935 11.9981 8.02642 12.9829 8.34771 13.3745L8.37813 13.4125L8.496 13.5532C8.50551 13.5646 8.51691 13.5722 8.52642 13.5817L8.54923 13.6026C8.56913 13.619 8.59081 13.633 8.61387 13.6445C8.67926 13.6775 8.7528 13.691 8.82565 13.6832C8.8985 13.6754 8.96756 13.6468 9.02452 13.6007C9.04043 13.589 9.05508 13.5756 9.06824 13.5608L9.18611 13.4182L9.21463 13.3821C9.26596 13.3213 9.3268 13.2471 9.40474 13.1578L9.41615 13.1445C9.79638 12.6635 10.4656 11.8137 11.1614 10.7947C14.1595 11.1502 16.3914 12.2186 16.3914 13.308C16.3914 14.5665 13.2679 15.9695 8.78687 15.9695Z" fill="#A3A3A3"/>
<path d="M11.4485 4.90521C11.4522 4.37801 11.2994 3.86156 11.0092 3.42137C10.719 2.98118 10.3047 2.63708 9.81868 2.43271C9.33268 2.22834 8.79694 2.17291 8.27939 2.27346C7.76185 2.374 7.28582 2.62598 6.91169 2.99744C6.53755 3.3689 6.28217 3.84311 6.17792 4.35992C6.07367 4.87673 6.12526 5.41286 6.32613 5.90031C6.52701 6.38776 6.86813 6.80457 7.30623 7.09788C7.74433 7.39119 8.25967 7.54778 8.78689 7.54779C9.48951 7.54781 10.1636 7.27 10.6622 6.77496C11.1608 6.27992 11.4435 5.60781 11.4485 4.90521ZM6.88575 4.90521C6.88199 4.52842 6.99027 4.159 7.19687 3.84387C7.40347 3.52874 7.69905 3.28211 8.04609 3.1353C8.39313 2.98848 8.77596 2.94811 9.14599 3.01931C9.51602 3.0905 9.85655 3.27005 10.1243 3.53516C10.3921 3.80026 10.5751 4.13897 10.65 4.50826C10.7249 4.87755 10.6884 5.26078 10.5451 5.60928C10.4017 5.95777 10.1581 6.25582 9.84505 6.46557C9.53202 6.67532 9.16371 6.78732 8.78689 6.78734C8.28595 6.78736 7.80525 6.58968 7.44926 6.23725C7.09327 5.88482 6.89076 5.40612 6.88575 4.90521Z" fill="#A3A3A3"/>
</svg>
