<svg width="17" height="17" viewBox="0 0 17 17" fill="none" xmlns="http://www.w3.org/2000/svg">
<path d="M14.4532 6.70553L14.5302 6.98625L14.8123 7.05791L16.2344 7.41909V9.5846L14.8081 9.94934L14.5296 10.0205L14.451 10.297C14.3259 10.7369 14.1452 11.1742 13.91 11.6089L13.7762 11.8562L13.9179 12.0989L14.6764 13.3986L13.1863 14.9188L11.9205 14.1532L11.6701 14.0017L11.4154 14.1459C10.9926 14.3853 10.5625 14.5643 10.1247 14.6877L9.84418 14.7667L9.77469 15.0497L9.41859 16.5H7.31073L6.94505 15.0469L6.87519 14.7693L6.60043 14.689C6.15344 14.5584 5.72106 14.375 5.30991 14.1448L5.05638 14.0028L4.80752 14.1528L3.54804 14.912L2.05143 13.3916L2.81196 12.1007L2.9572 11.8541L2.81821 11.604C2.59391 11.2004 2.41346 10.759 2.28425 10.2931L2.20682 10.0138L1.92604 9.94219L0.5 9.57835V7.41795L1.91959 7.05414L2.19876 6.98259L2.27678 6.70516C2.40592 6.24601 2.58669 5.80324 2.81938 5.37972L2.95616 5.13077L2.81235 4.88582L2.05827 3.60138L3.55462 2.08128L4.80574 2.84253L5.05403 2.9936L5.30819 2.85261C5.73064 2.61826 6.16772 2.4343 6.60932 2.30332L6.88331 2.22205L6.95234 1.94472L7.31192 0.5H9.42581L9.7854 1.95129L9.85446 2.23003L10.13 2.31084C10.5905 2.44587 11.0216 2.62605 11.4215 2.85353L11.6761 2.99831L11.9269 2.84715L13.1864 2.08799L14.6842 3.60961L13.9296 4.88839L13.7863 5.13123L13.9199 5.37951C14.1468 5.80094 14.3276 6.24756 14.4532 6.70553ZM3.63353 14.9988L3.63347 14.9988L3.63353 14.9988ZM8.36719 13.6183C9.39436 13.6183 10.3793 13.3031 11.2152 12.7177C12.593 11.7655 13.4099 10.1872 13.4099 8.5C13.4099 5.68481 11.1574 3.38524 8.36719 3.38524C5.57748 3.38524 3.32102 5.68431 3.32102 8.5C3.32102 10.1874 4.13803 11.7657 5.51237 12.7178C6.35156 13.303 7.33993 13.6183 8.36719 13.6183Z" stroke="#A3A3A3"/>
<path d="M7.29834 6.94141C7.29834 6.33106 7.78335 5.84766 8.36719 5.84766C8.94825 5.84766 9.43604 6.33179 9.43604 6.94141C9.43604 7.26737 9.30598 7.64209 9.08517 7.9309C8.86326 8.22115 8.60323 8.36102 8.36719 8.36102C8.12907 8.36102 7.8692 8.22079 7.64812 7.93119C7.42793 7.64275 7.29834 7.26798 7.29834 6.94141Z" stroke="#A3A3A3"/>
<path d="M7.59994 9.61456L7.60022 9.61501C7.60013 9.61486 7.60003 9.61471 7.59994 9.61456ZM7.59994 9.61456C7.59979 9.61433 7.59965 9.61411 7.59951 9.61388L7.59951 9.61388L7.59994 9.61456ZM8.77655 10.1546L9.08968 9.6837C9.51852 9.68486 9.90207 9.69787 10.1872 9.81145C10.3239 9.86593 10.4119 9.93469 10.4695 10.0183C10.5267 10.1016 10.583 10.2419 10.583 10.4905V11.0425C10.4752 11.1423 10.3651 11.2329 10.2494 11.3128L10.2494 11.3128L10.2467 11.3147C9.76171 11.6545 9.20693 11.8539 8.62726 11.8997L8.61847 11.9C8.61349 11.9002 8.60666 11.9005 8.59874 11.9009L8.59874 11.9009L8.59446 11.9012C8.51521 11.9067 8.43998 11.91 8.36705 11.91C8.34027 11.91 8.31844 11.9089 8.28595 11.9072C8.26889 11.9063 8.24889 11.9053 8.22369 11.9042L8.22369 11.9042L8.21998 11.904C8.19804 11.9032 8.18139 11.9028 8.16738 11.9024C8.14559 11.9018 8.13019 11.9013 8.11123 11.9001C7.528 11.8549 6.96832 11.6552 6.47663 11.312L6.47519 11.311C6.36187 11.2326 6.25381 11.1435 6.14783 11.0453V10.4905C6.14783 10.2419 6.2041 10.1016 6.26136 10.0184C6.3189 9.93481 6.40694 9.86603 6.54391 9.81152C6.82942 9.6979 7.21365 9.68487 7.64395 9.6837L7.9384 10.1463L8.35105 10.7945L8.77655 10.1546Z" stroke="#A3A3A3"/>
</svg>
