<svg width="8" height="14" viewBox="0 0 8 14" fill="none" xmlns="http://www.w3.org/2000/svg">
<path d="M7.68254 12.2254L2.44444 7L7.68254 1.77465C7.87302 1.57746 7.98413 1.33099 7.98413 1.05164C7.98413 0.7723 7.88889 0.50939 7.69841 0.312207C7.50794 0.115023 7.26984 0 7 0H6.98413C6.73016 0 6.47619 0.0985915 6.28572 0.295775L0.301588 6.26056C0.111111 6.45775 0 6.72066 0 7C0 7.27934 0.111111 7.55869 0.301588 7.73944L6.30159 13.7042C6.49206 13.885 6.73016 14 7 14C7.26984 14 7.52381 13.885 7.71429 13.6878C7.90476 13.4906 8 13.2277 8 12.9484C8 12.669 7.88889 12.4061 7.68254 12.2254Z" fill="#7895FF"/>
</svg>
