<svg width="25" height="24" viewBox="0 0 25 24" fill="none" xmlns="http://www.w3.org/2000/svg">
<path d="M9.91372 16.4096L12.9726 13.0946L9.91372 9.77959C9.70646 9.55498 9.62783 9.2268 9.70848 8.92134L11.4359 2.36823C10.3125 1.26002 8.75202 0.421875 6.45162 0.421875C2.47218 0.421875 0 3.26843 0 7.85072C0 16.6015 11.6532 22.7989 12.1496 23.0584C12.2601 23.1165 12.3798 23.1454 12.5 23.1454C12.6202 23.1454 12.7399 23.1165 12.8504 23.0584C12.9262 23.0187 13.2637 22.8395 13.7778 22.5358L9.87138 17.5965C9.59759 17.2495 9.61573 16.7325 9.91372 16.4096Z" fill="#E44646"/>
<path d="M18.5484 0.421875C15.6484 0.421875 13.904 2.28651 12.7577 4.0419C12.5 4.35478 11.3895 8.90734 11.3895 8.90734L14.6831 12.4767C14.998 12.818 14.998 13.3712 14.6831 13.7125L11.5823 17.0729L15.1984 21.6447C18.7359 19.309 25 14.2688 25 7.8507C25 3.26843 22.5278 0.421875 18.5484 0.421875Z" fill="#E44646"/>
</svg>
