<svg width="268" height="160" viewBox="0 0 268 160" fill="none" xmlns="http://www.w3.org/2000/svg">
<g clip-path="url(#clip0)">
<path opacity="0.1" d="M262.114 159.403C264.379 157.746 261.758 153.141 256.259 149.117C250.761 145.094 244.468 143.176 242.203 144.833C239.939 146.491 242.56 151.095 248.058 155.119C253.556 159.142 259.849 161.06 262.114 159.403Z" fill="#7895FF"/>
<path d="M253.155 152.791C254.874 152.791 256.268 151.456 256.268 149.809C256.268 148.161 254.874 146.826 253.155 146.826C251.436 146.826 250.042 148.161 250.042 149.809C250.042 151.456 251.436 152.791 253.155 152.791Z" fill="#3F3D56"/>
<path d="M253.155 149.146C254.874 149.146 256.268 147.81 256.268 146.163C256.268 144.516 254.874 143.18 253.155 143.18C251.436 143.18 250.042 144.516 250.042 146.163C250.042 147.81 251.436 149.146 253.155 149.146Z" fill="#3F3D56"/>
<path d="M253.155 145.501C254.874 145.501 256.268 144.165 256.268 142.518C256.268 140.871 254.874 139.535 253.155 139.535C251.436 139.535 250.042 140.871 250.042 142.518C250.042 144.165 251.436 145.501 253.155 145.501Z" fill="#3F3D56"/>
<path d="M253.155 141.855C254.874 141.855 256.268 140.52 256.268 138.873C256.268 137.225 254.874 135.89 253.155 135.89C251.436 135.89 250.042 137.225 250.042 138.873C250.042 140.52 251.436 141.855 253.155 141.855Z" fill="#3F3D56"/>
<path d="M253.155 138.211C254.874 138.211 256.268 136.875 256.268 135.228C256.268 133.581 254.874 132.246 253.155 132.246C251.436 132.246 250.042 133.581 250.042 135.228C250.042 136.875 251.436 138.211 253.155 138.211Z" fill="#3F3D56"/>
<path d="M253.155 134.566C254.874 134.566 256.268 133.231 256.268 131.583C256.268 129.936 254.874 128.601 253.155 128.601C251.436 128.601 250.042 129.936 250.042 131.583C250.042 133.231 251.436 134.566 253.155 134.566Z" fill="#3F3D56"/>
<path d="M253.155 130.921C254.874 130.921 256.268 129.586 256.268 127.938C256.268 126.291 254.874 124.956 253.155 124.956C251.436 124.956 250.042 126.291 250.042 127.938C250.042 129.586 251.436 130.921 253.155 130.921Z" fill="#3F3D56"/>
<path d="M264.809 102.995C265.235 102.599 265.623 102.182 265.969 101.747L257.788 100.764L266.637 100.811C267.485 99.4595 267.949 97.996 267.999 96.5094C268.049 95.0228 267.684 93.5444 266.927 92.1644L255.058 96.6711L265.998 90.7824C264.974 89.4844 263.594 88.3548 261.947 87.464C260.299 86.5732 258.418 85.9404 256.422 85.6049C254.425 85.2694 252.355 85.2386 250.342 85.5142C248.328 85.7898 246.414 86.3661 244.718 87.207C243.022 88.0479 241.581 89.1354 240.485 90.4018C239.388 91.6682 238.66 93.0862 238.346 94.5675C238.032 96.0488 238.138 97.5616 238.658 99.0115C239.178 100.461 240.101 101.818 241.368 102.995C240.705 103.611 240.135 104.278 239.668 104.984L250.286 109.018L238.972 106.237C238.178 107.956 237.981 109.794 238.401 111.583C238.821 113.372 239.844 115.056 241.377 116.484C239.647 118.093 238.571 120.026 238.271 122.062C237.972 124.098 238.462 126.155 239.684 127.996C240.907 129.838 242.813 131.391 245.185 132.478C247.557 133.564 250.299 134.141 253.097 134.141C255.896 134.141 258.638 133.564 261.009 132.478C263.381 131.391 265.288 129.838 266.51 127.996C267.733 126.155 268.223 124.098 267.923 122.062C267.624 120.026 266.548 118.093 264.818 116.484C266.885 114.56 268.009 112.184 268.009 109.737C268.009 107.29 266.885 104.914 264.818 102.991L264.809 102.995Z" fill="#7895FF"/>
<path opacity="0.1" d="M238.177 109.742C238.171 112.19 239.296 114.567 241.368 116.488C239.638 118.098 238.562 120.031 238.263 122.067C237.963 124.103 238.453 126.159 239.675 128.001C240.898 129.843 242.804 131.396 245.176 132.483C247.548 133.569 250.29 134.145 253.088 134.145C255.887 134.145 258.629 133.569 261.001 132.483C263.373 131.396 265.279 129.843 266.501 128.001C267.724 126.159 268.214 124.103 267.914 122.067C267.615 120.031 266.539 118.098 264.809 116.488C266.808 114.633 238.177 108.517 238.177 109.742Z" fill="black"/>
<path d="M245.711 0V152.844L174.925 145.626L88.8769 158.472L88.1835 158.576L19.7185 144.777V11.8879L90.7945 0L168.543 11.8879L171.499 11.4315L245.711 0Z" fill="#444053"/>
<path d="M233.817 8.34644V145.101L170.484 138.644L93.4924 150.137L92.8716 150.228L31.6128 137.884V18.9818L95.2099 8.34644L164.771 18.9818L167.417 18.5742L233.817 8.34644Z" fill="white"/>
<path opacity="0.1" d="M174.925 145.626L88.877 158.472L90.7946 0L168.543 11.8879L171.499 11.4315L174.925 145.626Z" fill="black"/>
<g opacity="0.3">
<path opacity="0.3" d="M166.332 29.2952L166.367 73.7685H191.606V55.5121H234.832L239.909 50.7485" stroke="#444053" stroke-width="3" stroke-miterlimit="10"/>
<path opacity="0.3" d="M25.8108 43.4118H119.66L125.462 41.5012H127.783V84.3824H168.398L170.139 88.2035V107.521H201.47V131.403" stroke="#444053" stroke-width="3" stroke-miterlimit="10"/>
<path opacity="0.3" d="M140.179 131.403V84.3826" stroke="#444053" stroke-width="3" stroke-miterlimit="10"/>
<path opacity="0.3" d="M239.909 118.806H140.179" stroke="#444053" stroke-width="3" stroke-miterlimit="10"/>
<path opacity="0.3" d="M214.931 29.2952V131.403" stroke="#444053" stroke-width="3" stroke-miterlimit="10"/>
<path opacity="0.3" d="M25.5208 109.78H239.909" stroke="#444053" stroke-width="3" stroke-miterlimit="10"/>
<path opacity="0.3" d="M51.613 131.403V29.2952" stroke="#444053" stroke-width="3" stroke-miterlimit="10"/>
<path opacity="0.3" d="M101.447 29.2952V131.403" stroke="#444053" stroke-width="3" stroke-miterlimit="10"/>
<path opacity="0.3" d="M25.8108 55.0874L191.606 55.512" stroke="#444053" stroke-width="3" stroke-miterlimit="10"/>
<path opacity="0.3" d="M74.0642 29.4797V131.403" stroke="#444053" stroke-width="3" stroke-miterlimit="10"/>
<path opacity="0.3" d="M25.5208 78.7188H101.447L140.179 109.78" stroke="#444053" stroke-width="3" stroke-miterlimit="10"/>
<path opacity="0.3" d="M148.569 29.2952V84.3827" stroke="#444053" stroke-width="3" stroke-miterlimit="10"/>
<path opacity="0.3" d="M140.179 94.2495H239.909" stroke="#444053" stroke-width="3" stroke-miterlimit="10"/>
</g>
<path opacity="0.1" d="M150.052 158.379C154.975 156.828 158.257 154.367 157.384 152.883C156.511 151.4 151.812 151.454 146.89 153.005C141.968 154.557 138.685 157.017 139.559 158.501C140.432 159.985 145.13 159.93 150.052 158.379Z" fill="#7895FF"/>
<path d="M148.357 156.592C149.543 156.592 150.504 155.672 150.504 154.537C150.504 153.402 149.543 152.482 148.357 152.482C147.172 152.482 146.21 153.402 146.21 154.537C146.21 155.672 147.172 156.592 148.357 156.592Z" fill="#3F3D56"/>
<path d="M148.357 154.078C149.543 154.078 150.504 153.158 150.504 152.023C150.504 150.888 149.543 149.968 148.357 149.968C147.172 149.968 146.21 150.888 146.21 152.023C146.21 153.158 147.172 154.078 148.357 154.078Z" fill="#3F3D56"/>
<path d="M148.357 151.566C149.543 151.566 150.504 150.646 150.504 149.511C150.504 148.377 149.543 147.457 148.357 147.457C147.172 147.457 146.21 148.377 146.21 149.511C146.21 150.646 147.172 151.566 148.357 151.566Z" fill="#3F3D56"/>
<path d="M148.357 149.055C149.543 149.055 150.504 148.135 150.504 147C150.504 145.865 149.543 144.945 148.357 144.945C147.172 144.945 146.21 145.865 146.21 147C146.21 148.135 147.172 149.055 148.357 149.055Z" fill="#3F3D56"/>
<path d="M148.357 146.541C149.543 146.541 150.504 145.621 150.504 144.487C150.504 143.352 149.543 142.432 148.357 142.432C147.172 142.432 146.21 143.352 146.21 144.487C146.21 145.621 147.172 146.541 148.357 146.541Z" fill="#3F3D56"/>
<path d="M148.357 144.03C149.543 144.03 150.504 143.11 150.504 141.975C150.504 140.84 149.543 139.92 148.357 139.92C147.172 139.92 146.21 140.84 146.21 141.975C146.21 143.11 147.172 144.03 148.357 144.03Z" fill="#3F3D56"/>
<path d="M148.357 141.519C149.543 141.519 150.504 140.599 150.504 139.464C150.504 138.329 149.543 137.409 148.357 137.409C147.172 137.409 146.21 138.329 146.21 139.464C146.21 140.599 147.172 141.519 148.357 141.519Z" fill="#3F3D56"/>
<path d="M140.324 122.271C140.032 122.001 139.764 121.717 139.524 121.422L145.163 120.742L139.071 120.776C138.487 119.845 138.168 118.836 138.134 117.812C138.1 116.787 138.352 115.768 138.874 114.817L147.055 117.913L139.512 113.854C140.218 112.959 141.169 112.181 142.305 111.568C143.44 110.954 144.736 110.518 146.112 110.287C147.488 110.056 148.914 110.035 150.301 110.225C151.689 110.415 153.008 110.812 154.177 111.391C155.345 111.971 156.338 112.72 157.094 113.593C157.849 114.465 158.351 115.443 158.567 116.463C158.784 117.484 158.711 118.526 158.353 119.526C157.995 120.525 157.359 121.459 156.486 122.271C156.939 122.696 157.328 123.156 157.646 123.642L150.333 126.425L158.137 124.515C158.685 125.7 158.82 126.966 158.531 128.199C158.242 129.433 157.537 130.594 156.48 131.577C157.673 132.687 158.415 134.019 158.622 135.423C158.828 136.826 158.491 138.244 157.648 139.513C156.805 140.783 155.491 141.854 153.856 142.603C152.221 143.352 150.331 143.749 148.402 143.749C146.473 143.749 144.583 143.352 142.948 142.603C141.313 141.854 139.999 140.783 139.156 139.513C138.314 138.244 137.976 136.826 138.183 135.423C138.389 134.019 139.131 132.687 140.324 131.577C138.9 130.251 138.125 128.614 138.125 126.927C138.125 125.241 138.9 123.603 140.324 122.277V122.271Z" fill="#7895FF"/>
<path opacity="0.1" d="M158.679 126.914C158.683 128.601 157.908 130.24 156.48 131.565C157.673 132.674 158.415 134.007 158.622 135.41C158.828 136.814 158.491 138.231 157.648 139.501C156.805 140.771 155.491 141.841 153.856 142.59C152.221 143.339 150.331 143.737 148.402 143.737C146.473 143.737 144.583 143.339 142.948 142.59C141.313 141.841 139.999 140.771 139.156 139.501C138.314 138.231 137.976 136.814 138.183 135.41C138.389 134.007 139.131 132.674 140.324 131.565C138.946 130.291 158.679 126.077 158.679 126.914Z" fill="black"/>
<path opacity="0.1" d="M23.9367 154.733C26.2014 153.076 23.5802 148.471 18.0821 144.448C12.584 140.424 6.29094 138.506 4.0262 140.164C1.76147 141.821 4.38265 146.426 9.88078 150.449C15.3789 154.472 21.672 156.39 23.9367 154.733Z" fill="#7895FF"/>
<path d="M14.9781 148.12C16.6972 148.12 18.0909 146.785 18.0909 145.138C18.0909 143.491 16.6972 142.155 14.9781 142.155C13.2589 142.155 11.8652 143.491 11.8652 145.138C11.8652 146.785 13.2589 148.12 14.9781 148.12Z" fill="#3F3D56"/>
<path d="M14.9781 144.476C16.6972 144.476 18.0909 143.14 18.0909 141.493C18.0909 139.846 16.6972 138.51 14.9781 138.51C13.2589 138.51 11.8652 139.846 11.8652 141.493C11.8652 143.14 13.2589 144.476 14.9781 144.476Z" fill="#3F3D56"/>
<path d="M14.9781 140.83C16.6972 140.83 18.0909 139.495 18.0909 137.848C18.0909 136.201 16.6972 134.865 14.9781 134.865C13.2589 134.865 11.8652 136.201 11.8652 137.848C11.8652 139.495 13.2589 140.83 14.9781 140.83Z" fill="#3F3D56"/>
<path d="M14.9781 137.186C16.6972 137.186 18.0909 135.851 18.0909 134.203C18.0909 132.556 16.6972 131.221 14.9781 131.221C13.2589 131.221 11.8652 132.556 11.8652 134.203C11.8652 135.851 13.2589 137.186 14.9781 137.186Z" fill="#3F3D56"/>
<path d="M14.9781 133.541C16.6972 133.541 18.0909 132.206 18.0909 130.558C18.0909 128.911 16.6972 127.576 14.9781 127.576C13.2589 127.576 11.8652 128.911 11.8652 130.558C11.8652 132.206 13.2589 133.541 14.9781 133.541Z" fill="#3F3D56"/>
<path d="M14.9781 129.896C16.6972 129.896 18.0909 128.56 18.0909 126.913C18.0909 125.266 16.6972 123.931 14.9781 123.931C13.2589 123.931 11.8652 125.266 11.8652 126.913C11.8652 128.56 13.2589 129.896 14.9781 129.896Z" fill="#3F3D56"/>
<path d="M14.9781 126.251C16.6972 126.251 18.0909 124.915 18.0909 123.268C18.0909 121.621 16.6972 120.285 14.9781 120.285C13.2589 120.285 11.8652 121.621 11.8652 123.268C11.8652 124.915 13.2589 126.251 14.9781 126.251Z" fill="#3F3D56"/>
<path d="M26.6319 98.3256C27.0578 97.9298 27.4455 97.5127 27.7923 97.0774L19.6113 96.0945L28.4595 96.1412C29.3083 94.7901 29.7718 93.3266 29.8217 91.84C29.8716 90.3534 29.5068 88.8749 28.7496 87.4949L16.8814 92.0017L27.8213 86.113C26.7965 84.815 25.4173 83.6854 23.7697 82.7946C22.122 81.9038 20.2413 81.2709 18.2446 80.9355C16.248 80.6 14.1783 80.5691 12.1647 80.8448C10.151 81.1204 8.23654 81.6966 6.54064 82.5375C4.84473 83.3784 3.40376 84.466 2.30756 85.7324C1.21136 86.9987 0.483439 88.4168 0.169192 89.8981C-0.145055 91.3794 -0.0388907 92.8922 0.48106 94.3421C1.00101 95.7921 1.9236 97.1481 3.1913 98.3256C2.52814 98.9418 1.95814 99.6087 1.49128 100.315L12.1092 104.348L0.795025 101.567C0.00059232 103.287 -0.195538 105.124 0.224371 106.913C0.644279 108.703 1.66698 110.387 3.20001 111.814C1.46995 113.424 0.393732 115.357 0.0943947 117.393C-0.204943 119.429 0.284681 121.485 1.50729 123.327C2.7299 125.169 4.63614 126.722 7.00808 127.808C9.38002 128.895 12.1219 129.471 14.9203 129.471C17.7187 129.471 20.4606 128.895 22.8325 127.808C25.2044 126.722 27.1107 125.169 28.3333 123.327C29.5559 121.485 30.0455 119.429 29.7462 117.393C29.4468 115.357 28.3706 113.424 26.6406 111.814C28.7077 109.891 29.8316 107.515 29.8316 105.068C29.8316 102.621 28.7077 100.245 26.6406 98.3214L26.6319 98.3256Z" fill="#7895FF"/>
<path opacity="0.1" d="M2.08617e-05 105.071C-0.00558543 107.519 1.11892 109.896 3.19119 111.818C1.46113 113.427 0.384913 115.36 0.0855751 117.396C-0.213763 119.432 0.275861 121.489 1.49847 123.331C2.72108 125.173 4.62733 126.726 6.99926 127.812C9.3712 128.899 12.1131 129.475 14.9115 129.475C17.7098 129.475 20.4517 128.899 22.8237 127.812C25.1956 126.726 27.1019 125.173 28.3245 123.331C29.5471 121.489 30.0367 119.432 29.7374 117.396C29.438 115.36 28.3618 113.427 26.6318 111.818C28.6306 109.962 2.08617e-05 103.847 2.08617e-05 105.071Z" fill="black"/>
<path d="M109.775 72.8887H97.5344V67.6153L109.109 67.5554L109.836 69.5929L109.775 72.8887Z" fill="#7895FF"/>
<path d="M103.685 45.3333C101.821 45.3333 100.033 46.0608 98.7147 47.3559C97.3964 48.651 96.6558 50.4076 96.6558 52.2391C96.6558 56.0531 103.685 68.4444 103.685 68.4444C103.685 68.4444 110.715 56.0581 110.715 52.2391C110.715 50.4076 109.974 48.651 108.656 47.3559C107.338 46.0608 105.55 45.3333 103.685 45.3333ZM103.685 55.1848C103.074 55.1848 102.476 55.0066 101.967 54.6728C101.459 54.339 101.062 53.8645 100.828 53.3093C100.594 52.7542 100.533 52.1433 100.652 51.5539C100.771 50.9646 101.066 50.4232 101.498 49.9983C101.931 49.5734 102.482 49.2841 103.082 49.1669C103.682 49.0496 104.304 49.1098 104.869 49.3398C105.434 49.5697 105.917 49.9591 106.257 50.4587C106.596 50.9584 106.778 51.5458 106.778 52.1467C106.778 52.9522 106.452 53.7247 105.872 54.2942C105.292 54.8637 104.505 55.1836 103.685 55.1836V55.1848Z" fill="#7895FF"/>
</g>
<defs>
<clipPath id="clip0">
<rect width="268" height="160" fill="white"/>
</clipPath>
</defs>
</svg>
