<svg width="262" height="153" viewBox="0 0 262 153" fill="none" xmlns="http://www.w3.org/2000/svg">
<g clip-path="url(#clip0)">
<path d="M229.129 134.056C222.289 133.989 215.459 133.436 208.684 132.398C208.446 132.362 208.208 132.323 207.97 132.286L208.328 61.5078C208.564 61.3 208.803 61.0955 209.045 60.8973C209.846 60.2365 210.67 59.6171 211.522 59.0486C215.627 56.316 220.433 55.0649 223.749 56.3186L223.801 56.341C224.527 56.6117 225.198 57.0381 225.774 57.5959C228.686 60.4542 228.201 66.2334 225.85 71.4779C230.51 66.7739 236.391 63.0283 241.64 62.7437C246.759 62.4647 250.417 65.4226 253.525 68.6309C253.628 68.7362 253.728 68.8414 253.828 68.9467C253.879 68.9978 253.927 69.0519 253.979 69.1029C256.347 71.606 258.682 74.5242 258.4 78.7482C258.09 83.3807 254.578 88.5168 250.486 92.1181C246.396 95.7193 241.751 98.1124 237.217 100.538C232.686 102.967 228.039 105.595 224.166 109.492C230.209 104.213 237.085 99.9572 243.772 98.385C250.459 96.8128 256.881 98.1964 260.031 102.901C260.958 104.329 261.561 105.982 261.791 107.721C261.822 107.924 261.846 108.13 261.868 108.34C262.317 112.695 260.953 117.895 257.695 122.319C254.107 127.191 248.788 130.57 243.738 132.25C238.689 133.931 233.828 134.11 229.129 134.056Z" fill="#F2F2F2"/>
<path d="M208.195 87.7484L208.202 86.395C208.445 85.9652 208.685 85.5335 208.923 85.0997C209.076 84.8311 209.224 84.5595 209.375 84.2877C211.856 79.7984 214.236 75.281 216.515 70.7356C218.796 66.1943 220.972 61.6302 223.043 57.0432C223.091 56.9216 223.176 56.8224 223.283 56.7628C223.39 56.7033 223.513 56.6871 223.63 56.7171C223.645 56.722 223.659 56.7297 223.672 56.7397C223.781 56.8037 223.826 56.9467 223.734 57.1554C223.478 57.718 223.223 58.2838 222.962 58.8464C220.856 63.4459 218.644 68.0257 216.328 72.5857C214.013 77.1426 211.595 81.6735 209.075 86.1784C209.023 86.2731 208.968 86.368 208.916 86.4627C208.676 86.8923 208.435 87.3188 208.195 87.7484Z" fill="white"/>
<path d="M208.107 105.199L208.111 104.362C208.35 104.173 208.589 103.988 208.828 103.799C214.457 99.3642 220.085 94.9303 225.714 90.4972C234.929 83.2377 244.143 75.9802 253.358 68.725C253.408 68.682 253.464 68.65 253.525 68.6309C253.729 68.5688 253.849 68.7344 253.828 68.9466C253.816 69.0361 253.787 69.1218 253.743 69.1981C253.699 69.2744 253.641 69.3394 253.573 69.3888C248.405 73.459 243.239 77.528 238.076 81.5961C228.907 88.8179 219.739 96.0386 210.573 103.258C209.991 103.718 209.406 104.177 208.824 104.636C208.585 104.825 208.346 105.014 208.107 105.199Z" fill="white"/>
<path d="M212.506 123.843C211.229 123.801 209.973 123.707 208.728 123.585C208.49 123.562 208.252 123.538 208.014 123.514L208.019 122.636C208.257 122.663 208.495 122.69 208.733 122.714C210.531 122.899 212.349 123.031 214.217 123.049C219.395 123.072 224.562 122.515 229.638 121.385C235.103 120.184 240.464 118.459 245.659 116.231C251.137 113.892 256.438 111.072 261.51 107.798C261.592 107.736 261.692 107.709 261.791 107.721C262.018 107.757 262.085 108.09 261.868 108.339C261.826 108.388 261.777 108.431 261.724 108.465C261.094 108.87 260.462 109.268 259.827 109.658C254.728 112.811 249.409 115.51 243.921 117.729C238.709 119.843 233.34 121.45 227.876 122.534C222.806 123.549 217.656 123.988 212.506 123.843Z" fill="white"/>
<path d="M206.195 3.60306e-09H32.0476C31.3843 0.000666483 30.7483 0.292113 30.2793 0.810364C29.8102 1.32862 29.5465 2.03132 29.5459 2.76423V133.152C29.5465 133.885 29.8102 134.588 30.2793 135.106C30.7483 135.624 31.3843 135.916 32.0476 135.916H206.195C206.557 135.916 206.914 135.83 207.243 135.662C207.571 135.495 207.863 135.25 208.097 134.946C208.117 134.923 208.135 134.897 208.152 134.87C208.301 134.668 208.422 134.443 208.51 134.201C208.636 133.869 208.701 133.512 208.7 133.152V2.76425C208.699 2.03082 208.435 1.32771 207.965 0.809397C207.496 0.291082 206.859 -3.73961e-05 206.195 3.60306e-09ZM207.985 133.152C207.986 133.538 207.883 133.915 207.69 134.236C207.518 134.519 207.286 134.75 207.013 134.908C206.76 135.053 206.48 135.128 206.195 135.127H32.0476C31.5737 135.126 31.1194 134.918 30.7843 134.548C30.4493 134.178 30.2608 133.676 30.2602 133.152V2.76425C30.2608 2.24066 30.4493 1.73871 30.7843 1.36847C31.1194 0.998242 31.5737 0.789968 32.0476 0.789333H206.195C206.669 0.789266 207.124 0.997211 207.46 1.3675C207.796 1.73779 207.985 2.24015 207.985 2.76425V133.152Z" fill="#3F3D56"/>
<path d="M208.341 11.0786H29.9023V11.8688H208.341V11.0786Z" fill="#3F3D56"/>
<path d="M35.9815 8.29795C37.1664 8.29795 38.127 7.23657 38.127 5.9273C38.127 4.61802 37.1664 3.55664 35.9815 3.55664C34.7965 3.55664 33.8359 4.61802 33.8359 5.9273C33.8359 7.23657 34.7965 8.29795 35.9815 8.29795Z" fill="#3F3D56"/>
<path d="M42.1499 8.29795C43.3349 8.29795 44.2955 7.23657 44.2955 5.9273C44.2955 4.61802 43.3349 3.55664 42.1499 3.55664C40.965 3.55664 40.0044 4.61802 40.0044 5.9273C40.0044 7.23657 40.965 8.29795 42.1499 8.29795Z" fill="#3F3D56"/>
<path d="M48.3184 8.29795C49.5034 8.29795 50.464 7.23657 50.464 5.9273C50.464 4.61802 49.5034 3.55664 48.3184 3.55664C47.1334 3.55664 46.1729 4.61802 46.1729 5.9273C46.1729 7.23657 47.1334 8.29795 48.3184 8.29795Z" fill="#3F3D56"/>
<path d="M163.906 29.3706H74.3937C73.4046 29.3706 72.4559 28.9365 71.7565 28.1636C71.057 27.3908 70.6641 26.3426 70.6641 25.2496C70.6641 24.1567 71.057 23.1085 71.7565 22.3357C72.4559 21.5628 73.4046 21.1287 74.3937 21.1287H163.906C164.895 21.1287 165.844 21.5628 166.543 22.3357C167.243 23.1085 167.636 24.1567 167.636 25.2496C167.636 26.3426 167.243 27.3908 166.543 28.1636C165.844 28.9365 164.895 29.3706 163.906 29.3706ZM74.3937 21.7627C73.5568 21.7627 72.754 22.13 72.1622 22.784C71.5704 23.4379 71.2379 24.3248 71.2379 25.2496C71.2379 26.1745 71.5704 27.0614 72.1622 27.7153C72.754 28.3693 73.5568 28.7366 74.3937 28.7366H163.906C164.743 28.7366 165.546 28.3693 166.138 27.7153C166.73 27.0614 167.062 26.1745 167.062 25.2496C167.062 24.3248 166.73 23.4379 166.138 22.784C165.546 22.13 164.743 21.7627 163.906 21.7627H74.3937Z" fill="#3F3D56"/>
<path d="M75.1416 54.5717H67.1084C66.4997 54.5717 65.9159 54.3045 65.4855 53.829C65.055 53.3534 64.8132 52.7083 64.8132 52.0357C64.8132 51.3632 65.055 50.7181 65.4855 50.2425C65.9159 49.7669 66.4997 49.4998 67.1084 49.4998H75.1416C75.7503 49.4998 76.3341 49.7669 76.7645 50.2425C77.195 50.7181 77.4368 51.3632 77.4368 52.0357C77.4368 52.7083 77.195 53.3534 76.7645 53.829C76.3341 54.3045 75.7503 54.5717 75.1416 54.5717Z" fill="#CCCCCC"/>
<path d="M84.6092 63.1308H67.1084C66.4997 63.1308 65.9159 62.8636 65.4855 62.388C65.055 61.9125 64.8132 61.2674 64.8132 60.5948C64.8132 59.9222 65.055 59.2772 65.4855 58.8016C65.9159 58.326 66.4997 58.0588 67.1084 58.0588H84.6092C85.218 58.0588 85.8018 58.326 86.2322 58.8016C86.6626 59.2772 86.9044 59.9222 86.9044 60.5948C86.9044 61.2674 86.6626 61.9125 86.2322 62.388C85.8018 62.8636 85.218 63.1308 84.6092 63.1308Z" fill="#CCCCCC"/>
<path d="M76.5759 91.9772H68.5427C67.934 91.9772 67.3502 91.7101 66.9198 91.2345C66.4894 90.7589 66.2476 90.1138 66.2476 89.4413C66.2476 88.7687 66.4894 88.1236 66.9198 87.6481C67.3502 87.1725 67.934 86.9053 68.5427 86.9053H76.5759C77.1846 86.9053 77.7684 87.1725 78.1989 87.6481C78.6293 88.1236 78.8711 88.7687 78.8711 89.4413C78.8711 90.1138 78.6293 90.7589 78.1989 91.2345C77.7684 91.7101 77.1846 91.9772 76.5759 91.9772Z" fill="#CCCCCC"/>
<path d="M86.0436 100.536H68.5427C67.934 100.536 67.3502 100.269 66.9198 99.7935C66.4894 99.318 66.2476 98.6729 66.2476 98.0003C66.2476 97.3278 66.4894 96.6827 66.9198 96.2071C67.3502 95.7315 67.934 95.4644 68.5427 95.4644H86.0436C86.6523 95.4644 87.2361 95.7315 87.6665 96.2071C88.097 96.6827 88.3388 97.3278 88.3388 98.0003C88.3388 98.6729 88.097 99.318 87.6665 99.7935C87.2361 100.269 86.6523 100.536 86.0436 100.536Z" fill="#CCCCCC"/>
<path d="M129.365 91.0263H121.332C120.724 91.0263 120.14 90.7591 119.709 90.2835C119.279 89.808 119.037 89.1629 119.037 88.4903C119.037 87.8177 119.279 87.1727 119.709 86.6971C120.14 86.2215 120.724 85.9543 121.332 85.9543H129.365C129.974 85.9543 130.558 86.2215 130.988 86.6971C131.419 87.1727 131.661 87.8177 131.661 88.4903C131.661 89.1629 131.419 89.808 130.988 90.2835C130.558 90.7591 129.974 91.0263 129.365 91.0263Z" fill="#CCCCCC"/>
<path d="M138.833 99.5854H121.332C120.724 99.5854 120.14 99.3182 119.709 98.8427C119.279 98.3671 119.037 97.722 119.037 97.0494C119.037 96.3768 119.279 95.7318 119.709 95.2562C120.14 94.7806 120.724 94.5134 121.332 94.5134H138.833C139.442 94.5134 140.026 94.7806 140.456 95.2562C140.886 95.7318 141.128 96.3768 141.128 97.0494C141.128 97.722 140.886 98.3671 140.456 98.8427C140.026 99.3182 139.442 99.5854 138.833 99.5854Z" fill="#CCCCCC"/>
<path d="M128.505 56.1569H120.471C119.863 56.1569 119.279 55.8898 118.849 55.4142C118.418 54.9386 118.176 54.2935 118.176 53.621C118.176 52.9484 118.418 52.3033 118.849 51.8277C119.279 51.3522 119.863 51.085 120.471 51.085H128.505C129.113 51.085 129.697 51.3522 130.128 51.8277C130.558 52.3033 130.8 52.9484 130.8 53.621C130.8 54.2935 130.558 54.9386 130.128 55.4142C129.697 55.8898 129.113 56.1569 128.505 56.1569Z" fill="#CCCCCC"/>
<path d="M137.972 64.716H120.471C119.863 64.716 119.279 64.4488 118.849 63.9732C118.418 63.4977 118.176 62.8526 118.176 62.18C118.176 61.5074 118.418 60.8624 118.849 60.3868C119.279 59.9112 119.863 59.644 120.471 59.644H137.972C138.581 59.644 139.165 59.9112 139.595 60.3868C140.026 60.8624 140.267 61.5074 140.267 62.18C140.267 62.8526 140.026 63.4977 139.595 63.9732C139.165 64.4488 138.581 64.716 137.972 64.716Z" fill="#CCCCCC"/>
<path d="M182.155 54.2548H174.122C173.513 54.2548 172.929 53.9877 172.499 53.5121C172.068 53.0365 171.826 52.3914 171.826 51.7188C171.826 51.0463 172.068 50.4012 172.499 49.9256C172.929 49.4501 173.513 49.1829 174.122 49.1829H182.155C182.764 49.1829 183.347 49.4501 183.778 49.9256C184.208 50.4012 184.45 51.0463 184.45 51.7188C184.45 52.3914 184.208 53.0365 183.778 53.5121C183.347 53.9877 182.764 54.2548 182.155 54.2548Z" fill="#CCCCCC"/>
<path d="M191.622 62.8137H174.122C173.513 62.8137 172.929 62.5465 172.499 62.0709C172.068 61.5953 171.826 60.9503 171.826 60.2777C171.826 59.6051 172.068 58.9601 172.499 58.4845C172.929 58.0089 173.513 57.7417 174.122 57.7417H191.622C192.231 57.7417 192.815 58.0089 193.245 58.4845C193.676 58.9601 193.918 59.6051 193.918 60.2777C193.918 60.9503 193.676 61.5953 193.245 62.0709C192.815 62.5465 192.231 62.8137 191.622 62.8137Z" fill="#CCCCCC"/>
<path d="M52.9351 65.8251C57.6886 65.8251 61.542 61.5673 61.542 56.3151C61.542 51.0629 57.6886 46.8052 52.9351 46.8052C48.1816 46.8052 44.3281 51.0629 44.3281 56.3151C44.3281 61.5673 48.1816 65.8251 52.9351 65.8251Z" fill="#7895FF"/>
<path d="M56.9517 60.5951H48.9186C48.6904 60.5948 48.4716 60.4946 48.3102 60.3163C48.1489 60.138 48.0581 59.8962 48.0579 59.6441V52.9871C48.0581 52.735 48.1489 52.4933 48.3102 52.315C48.4716 52.1367 48.6904 52.0364 48.9186 52.0361H51.18C51.3271 52.0355 51.4718 52.0769 51.6002 52.1561C51.7286 52.2354 51.8364 52.3499 51.9131 52.4886L52.5437 53.6211H56.9517C57.1799 53.6214 57.3987 53.7217 57.5601 53.9C57.7214 54.0783 57.8122 54.32 57.8124 54.5721V59.6441C57.8122 59.8962 57.7214 60.138 57.5601 60.3163C57.3987 60.4946 57.1799 60.5948 56.9517 60.5951ZM48.9186 52.6701C48.8425 52.6702 48.7696 52.7037 48.7158 52.7631C48.662 52.8225 48.6318 52.9031 48.6317 52.9871V59.6441C48.6318 59.7282 48.662 59.8087 48.7158 59.8681C48.7696 59.9276 48.8425 59.961 48.9186 59.9611H56.9517C57.0278 59.961 57.1007 59.9276 57.1545 59.8681C57.2083 59.8087 57.2385 59.7282 57.2386 59.6441V54.5721C57.2385 54.4881 57.2083 54.4075 57.1545 54.3481C57.1007 54.2887 57.0278 54.2552 56.9517 54.2551H52.2232L51.4244 52.8209C51.3989 52.7747 51.3629 52.7365 51.3201 52.7101C51.2773 52.6837 51.229 52.6699 51.18 52.6701H48.9186Z" fill="white"/>
<path d="M105.724 67.4101C110.478 67.4101 114.331 63.1523 114.331 57.9001C114.331 52.6479 110.478 48.3901 105.724 48.3901C100.971 48.3901 97.1174 52.6479 97.1174 57.9001C97.1174 63.1523 100.971 67.4101 105.724 67.4101Z" fill="#7895FF"/>
<path d="M109.454 63.9236H101.995C101.767 63.9234 101.548 63.8231 101.386 63.6448C101.225 63.4665 101.134 63.2248 101.134 62.9726V52.8287C101.134 52.5765 101.225 52.3348 101.386 52.1565C101.548 51.9782 101.767 51.878 101.995 51.8777H107.4C107.596 51.8779 107.786 51.9518 107.939 52.0874L109.993 53.9114C110.094 54.0003 110.175 54.1131 110.231 54.2414C110.286 54.3698 110.315 54.5103 110.315 54.6527V62.9726C110.315 63.2248 110.224 63.4665 110.062 63.6448C109.901 63.8231 109.682 63.9234 109.454 63.9236ZM101.995 52.5117C101.919 52.5118 101.846 52.5452 101.792 52.6047C101.738 52.6641 101.708 52.7446 101.708 52.8287V62.9726C101.708 63.0567 101.738 63.1372 101.792 63.1967C101.846 63.2561 101.919 63.2895 101.995 63.2896H109.454C109.53 63.2895 109.603 63.2561 109.657 63.1967C109.711 63.1372 109.741 63.0567 109.741 62.9726V54.6527C109.741 54.6052 109.732 54.5584 109.713 54.5156C109.694 54.4728 109.667 54.4352 109.634 54.4056L107.579 52.5815C107.528 52.5364 107.465 52.5117 107.4 52.5117H101.995Z" fill="white"/>
<path d="M108.02 56.3154H103.429C103.353 56.3154 103.28 56.282 103.226 56.2225C103.173 56.1631 103.142 56.0825 103.142 55.9984C103.142 55.9143 103.173 55.8337 103.226 55.7742C103.28 55.7148 103.353 55.6814 103.429 55.6814H108.02C108.096 55.6814 108.169 55.7148 108.222 55.7742C108.276 55.8337 108.307 55.9143 108.307 55.9984C108.307 56.0825 108.276 56.1631 108.222 56.2225C108.169 56.282 108.096 56.3154 108.02 56.3154Z" fill="white"/>
<path d="M108.02 58.2175H103.429C103.353 58.2175 103.28 58.1841 103.226 58.1246C103.173 58.0652 103.142 57.9846 103.142 57.9005C103.142 57.8164 103.173 57.7358 103.226 57.6763C103.28 57.6169 103.353 57.5835 103.429 57.5835H108.02C108.096 57.5835 108.169 57.6169 108.222 57.6763C108.276 57.7358 108.307 57.8164 108.307 57.9005C108.307 57.9846 108.276 58.0652 108.222 58.1246C108.169 58.1841 108.096 58.2175 108.02 58.2175Z" fill="white"/>
<path d="M108.02 60.1196H103.429C103.353 60.1196 103.28 60.0862 103.226 60.0267C103.173 59.9673 103.142 59.8867 103.142 59.8026C103.142 59.7185 103.173 59.6379 103.226 59.5784C103.28 59.519 103.353 59.4856 103.429 59.4856H108.02C108.096 59.4856 108.169 59.519 108.222 59.5784C108.276 59.6379 108.307 59.7185 108.307 59.8026C108.307 59.8867 108.276 59.9673 108.222 60.0267C108.169 60.0862 108.096 60.1196 108.02 60.1196Z" fill="white"/>
<path d="M158.801 65.508C163.554 65.508 167.408 61.2502 167.408 55.998C167.408 50.7458 163.554 46.488 158.801 46.488C154.047 46.488 150.194 50.7458 150.194 55.998C150.194 61.2502 154.047 65.508 158.801 65.508Z" fill="#7895FF"/>
<path d="M162.817 59.4857H154.784C154.556 59.4854 154.337 59.3851 154.176 59.2068C154.014 59.0286 153.924 58.7868 153.923 58.5347V53.4627C153.924 53.2106 154.014 52.9688 154.176 52.7906C154.337 52.6123 154.556 52.512 154.784 52.5117H162.817C163.045 52.512 163.264 52.6123 163.426 52.7906C163.587 52.9688 163.678 53.2106 163.678 53.4627V58.5347C163.678 58.7868 163.587 59.0286 163.426 59.2068C163.264 59.3851 163.045 59.4854 162.817 59.4857ZM154.784 53.1457C154.708 53.1458 154.635 53.1792 154.581 53.2387C154.527 53.2981 154.497 53.3787 154.497 53.4627V58.5347C154.497 58.6187 154.527 58.6993 154.581 58.7587C154.635 58.8182 154.708 58.8516 154.784 58.8517H162.817C162.893 58.8516 162.966 58.8182 163.02 58.7587C163.074 58.6993 163.104 58.6187 163.104 58.5347V53.4627C163.104 53.3787 163.074 53.2981 163.02 53.2387C162.966 53.1792 162.893 53.1458 162.817 53.1457H154.784Z" fill="white"/>
<path d="M158.801 56.835C158.64 56.8353 158.481 56.7856 158.345 56.6916L154.058 53.7316C153.994 53.6869 153.948 53.6159 153.931 53.534C153.914 53.4522 153.927 53.3662 153.967 53.295C154.008 53.2238 154.072 53.1731 154.146 53.1542C154.22 53.1352 154.298 53.1495 154.362 53.1939L158.649 56.1538C158.695 56.1851 158.747 56.2017 158.801 56.2017C158.855 56.2017 158.907 56.1851 158.953 56.1538L163.239 53.1939C163.303 53.1495 163.381 53.1352 163.455 53.1542C163.529 53.1731 163.594 53.2238 163.634 53.295C163.674 53.3662 163.687 53.4522 163.67 53.534C163.653 53.6159 163.608 53.6869 163.543 53.7316L159.257 56.6916C159.12 56.7856 158.962 56.8353 158.801 56.835Z" fill="white"/>
<path d="M52.9351 103.231C57.6886 103.231 61.542 98.9733 61.542 93.7211C61.542 88.4689 57.6886 84.2112 52.9351 84.2112C48.1816 84.2112 44.3281 88.4689 44.3281 93.7211C44.3281 98.9733 48.1816 103.231 52.9351 103.231Z" fill="#7895FF"/>
<path d="M56.9517 97.2083H48.9186C48.6904 97.2081 48.4716 97.1078 48.3102 96.9295C48.1489 96.7512 48.0581 96.5095 48.0579 96.2573V91.1854C48.0581 90.9332 48.1489 90.6915 48.3102 90.5132C48.4716 90.3349 48.6904 90.2347 48.9186 90.2344H56.9517C57.1799 90.2347 57.3987 90.3349 57.5601 90.5132C57.7214 90.6915 57.8122 90.9332 57.8124 91.1854V96.2573C57.8122 96.5095 57.7214 96.7512 57.5601 96.9295C57.3987 97.1078 57.1799 97.2081 56.9517 97.2083ZM48.9186 90.8684C48.8425 90.8685 48.7696 90.9019 48.7158 90.9613C48.662 91.0207 48.6317 91.1013 48.6317 91.1854V96.2573C48.6317 96.3414 48.662 96.422 48.7158 96.4814C48.7696 96.5408 48.8425 96.5742 48.9186 96.5743H56.9517C57.0278 96.5742 57.1007 96.5408 57.1545 96.4814C57.2083 96.422 57.2385 96.3414 57.2386 96.2573V91.1854C57.2385 91.1013 57.2083 91.0207 57.1545 90.9613C57.1007 90.9019 57.0278 90.8685 56.9517 90.8684H48.9186Z" fill="white"/>
<path d="M55.6785 97.2085H49.9049C49.8042 97.2086 49.7052 97.1793 49.618 97.1237C49.5307 97.068 49.4583 96.988 49.4079 96.8916C49.3575 96.7952 49.331 96.6859 49.3311 96.5746C49.3311 96.4632 49.3576 96.3539 49.408 96.2576L51.1471 92.9291C51.1974 92.8327 51.2699 92.7526 51.3571 92.697C51.4443 92.6414 51.5433 92.6121 51.644 92.6121C51.7448 92.6121 51.8437 92.6414 51.9309 92.697C52.0182 92.7526 52.0906 92.8327 52.141 92.9291L53.2642 95.0787L53.9149 93.8333C53.9653 93.7369 54.0377 93.6569 54.1249 93.6013C54.2122 93.5456 54.3111 93.5163 54.4119 93.5163C54.5126 93.5163 54.6115 93.5456 54.6988 93.6013C54.786 93.6569 54.8584 93.7369 54.9088 93.8333L56.1755 96.2576C56.2258 96.3539 56.2524 96.4633 56.2524 96.5746C56.2523 96.6859 56.2258 96.7952 56.1755 96.8916C56.1251 96.988 56.0526 97.068 55.9654 97.1237C55.8781 97.1793 55.7792 97.2086 55.6784 97.2085H55.6785ZM55.6785 96.5746L54.4118 94.1503L53.5127 95.8712C53.4875 95.9194 53.4513 95.9594 53.4077 95.9873C53.3641 96.0151 53.3146 96.0297 53.2642 96.0297C53.2138 96.0297 53.1643 96.0151 53.1207 95.9873C53.0771 95.9594 53.0409 95.9194 53.0157 95.8712L51.6441 93.2461L49.9049 96.5746H55.6785Z" fill="white"/>
<path d="M56.0909 92.7702C56.4078 92.7702 56.6647 92.4863 56.6647 92.1362C56.6647 91.786 56.4078 91.5022 56.0909 91.5022C55.774 91.5022 55.5171 91.786 55.5171 92.1362C55.5171 92.4863 55.774 92.7702 56.0909 92.7702Z" fill="white"/>
<path d="M106.298 102.28C111.052 102.28 114.905 98.0224 114.905 92.7702C114.905 87.518 111.052 83.2603 106.298 83.2603C101.545 83.2603 97.6912 87.518 97.6912 92.7702C97.6912 98.0224 101.545 102.28 106.298 102.28Z" fill="#7895FF"/>
<path d="M106.298 92.9286C105.788 92.9286 105.288 92.7613 104.864 92.4478C104.439 92.1343 104.108 91.6888 103.913 91.1674C103.717 90.6461 103.666 90.0725 103.766 89.519C103.866 88.9656 104.111 88.4573 104.473 88.0583C104.834 87.6593 105.294 87.3876 105.795 87.2775C106.296 87.1674 106.815 87.2239 107.287 87.4398C107.758 87.6558 108.162 88.0214 108.445 88.4906C108.729 88.9598 108.88 89.5114 108.88 90.0756C108.88 90.832 108.607 91.5572 108.123 92.0921C107.639 92.6269 106.983 92.9278 106.298 92.9286ZM106.298 87.8567C105.901 87.8567 105.513 87.9868 105.183 88.2306C104.852 88.4744 104.595 88.821 104.443 89.2265C104.291 89.6319 104.251 90.0781 104.329 90.5085C104.406 90.939 104.597 91.3344 104.878 91.6447C105.159 91.955 105.517 92.1664 105.907 92.252C106.296 92.3376 106.7 92.2937 107.067 92.1257C107.434 91.9578 107.748 91.6734 107.968 91.3084C108.189 90.9435 108.307 90.5145 108.307 90.0756C108.306 89.4873 108.094 88.9233 107.718 88.5073C107.341 88.0913 106.831 87.8573 106.298 87.8567Z" fill="white"/>
<path d="M108.594 98.3175H104.003C103.737 98.3171 103.482 98.2001 103.293 97.9921C103.105 97.7841 102.999 97.5021 102.999 97.208C102.999 96.2411 103.347 95.3139 103.965 94.6302C104.584 93.9466 105.423 93.5625 106.298 93.5625C107.173 93.5625 108.013 93.9466 108.631 94.6302C109.25 95.3139 109.598 96.2411 109.598 97.208C109.597 97.5021 109.491 97.7841 109.303 97.9921C109.115 98.2001 108.86 98.3171 108.594 98.3175ZM106.298 94.1965C105.576 94.1974 104.883 94.515 104.372 95.0795C103.861 95.6441 103.574 96.4096 103.573 97.208C103.573 97.3341 103.618 97.4549 103.699 97.5441C103.78 97.6332 103.889 97.6833 104.003 97.6835H108.594C108.708 97.6833 108.817 97.6332 108.898 97.5441C108.978 97.4549 109.024 97.3341 109.024 97.208C109.023 96.4096 108.736 95.6441 108.225 95.0795C107.714 94.515 107.021 94.1974 106.298 94.1965Z" fill="white"/>
<path d="M23.2208 149.369H26.7382L28.4114 134.379L23.2202 134.379L23.2208 149.369Z" fill="#FFB8B8"/>
<path d="M33.5215 152.978L22.4671 152.979L22.4669 148.259L29.2503 148.259C30.383 148.259 31.4694 148.756 32.2704 149.641C33.0714 150.526 33.5214 151.726 33.5215 152.978L33.5215 152.978Z" fill="#2F2E41"/>
<path d="M10.0233 149.369H13.5407L15.2139 134.379L10.0227 134.379L10.0233 149.369Z" fill="#FFB8B8"/>
<path d="M20.3242 152.978L9.2698 152.979L9.2696 148.259L16.053 148.259C17.1857 148.259 18.2721 148.756 19.0731 149.641C19.8741 150.526 20.3242 151.726 20.3242 152.978L20.3242 152.978Z" fill="#2F2E41"/>
<path d="M10.4529 104.724C10.8318 104.455 11.1527 104.097 11.393 103.676C11.6332 103.254 11.7869 102.78 11.8433 102.286C11.8998 101.792 11.8575 101.291 11.7194 100.817C11.5814 100.343 11.3511 99.9081 11.0445 99.5432L13.3605 63.2285L6.68927 63.9434L6.50603 99.5064C5.98535 100.116 5.68515 100.915 5.6623 101.753C5.63944 102.591 5.89553 103.409 6.38204 104.052C6.86854 104.695 7.55166 105.119 8.30195 105.243C9.05223 105.367 9.81756 105.182 10.4529 104.724H10.4529Z" fill="#FFB8B8"/>
<path d="M23.3255 141.82C23.0099 141.819 22.7055 141.69 22.4695 141.459C22.2335 141.227 22.082 140.909 22.0434 140.563L19.9989 121.669C19.9702 121.403 19.8552 121.157 19.6754 120.977C19.4955 120.798 19.2629 120.696 19.0204 120.691C18.778 120.686 18.5421 120.778 18.3563 120.951C18.1706 121.123 18.0475 121.363 18.0099 121.628L15.4344 139.718C15.3878 140.055 15.2334 140.361 14.9993 140.583C14.7652 140.804 14.467 140.925 14.1591 140.923H9.98468C9.81432 140.923 9.64564 140.886 9.48837 140.814C9.3311 140.741 9.18834 140.635 9.06833 140.502C8.94832 140.368 8.85343 140.209 8.78912 140.035C8.72481 139.861 8.69236 139.674 8.69364 139.486L10.6859 99.3748C10.6867 99.0333 10.7989 98.7036 11.002 98.4462C11.2051 98.1888 11.4854 98.0211 11.7915 97.9737L27.2822 95.4891C27.4663 95.4596 27.6539 95.4745 27.8323 95.5325C28.0107 95.5906 28.1757 95.6905 28.3159 95.8256C28.4561 95.9606 28.5682 96.1275 28.6447 96.3148C28.7211 96.5021 28.76 96.7055 28.7587 96.911L28.4885 140.199C28.4862 140.564 28.3575 140.914 28.1288 141.177C27.9 141.44 27.5887 141.597 27.2589 141.614L23.3868 141.818C23.3663 141.819 23.3459 141.82 23.3255 141.82Z" fill="#2F2E41"/>
<path d="M15.2944 100.89C13.8044 100.884 12.3266 100.593 10.9262 100.03C10.6887 99.9339 10.4826 99.7617 10.3336 99.5358C10.1846 99.3099 10.0995 99.0402 10.089 98.7609C9.95534 95.4842 9.17351 78.6176 6.89738 68.3294C6.45497 66.3112 6.56317 64.1935 7.20833 62.2431C7.8535 60.2927 9.00676 58.597 10.5228 57.3697C10.6452 57.2725 10.77 57.1771 10.8972 57.0834C12.2136 56.1151 13.7324 55.5351 15.309 55.3985C16.8856 55.262 18.4677 55.5734 19.9046 56.3033C21.389 57.0371 22.6788 58.1785 23.6512 59.6188C24.6235 61.0591 25.2462 62.7503 25.4599 64.5316L29.1717 94.9796C29.1955 95.1699 29.1841 95.3636 29.1382 95.549C29.0923 95.7343 29.0128 95.9074 28.9045 96.0578C28.7986 96.2071 28.6664 96.3312 28.5158 96.4223C28.3652 96.5135 28.1994 96.5699 28.0285 96.5881C26.7423 96.7299 24.0749 97.2806 20.6609 99.3764C19.0192 100.381 17.1712 100.902 15.2944 100.89Z" fill="#3F3D56"/>
<path d="M10.7567 75.6509L4.64843 73.821C4.31817 73.7216 4.03707 73.4815 3.86681 73.1534C3.69655 72.8253 3.65102 72.436 3.74022 72.0709L5.88753 63.3202C6.11752 62.3828 6.65346 61.5727 7.39201 61.0461C8.13055 60.5195 9.0194 60.3137 9.88716 60.4684C10.7549 60.623 11.5401 61.1272 12.0914 61.8836C12.6426 62.6401 12.9209 63.5952 12.8725 64.565L12.3837 74.3527C12.3731 74.5649 12.3197 74.7718 12.2275 74.9583C12.1352 75.1448 12.0064 75.3062 11.8505 75.4306C11.6945 75.555 11.5154 75.6394 11.3261 75.6775C11.1369 75.7156 10.9423 75.7065 10.7567 75.6509Z" fill="#3F3D56"/>
<path d="M17.5563 52.1685C21.448 52.1685 24.6028 48.6827 24.6028 44.3827C24.6028 40.0828 21.448 36.5969 17.5563 36.5969C13.6646 36.5969 10.5098 40.0828 10.5098 44.3827C10.5098 48.6827 13.6646 52.1685 17.5563 52.1685Z" fill="#FFB8B8"/>
<path d="M43.0913 59.6801C43.056 59.8511 43.0331 60.025 43.0226 60.2L30.6982 68.0559L27.7025 66.1504L24.509 70.7698L30.9175 75.8166L44.9778 63.5606C45.5513 63.795 46.1758 63.831 46.7682 63.6638C47.3607 63.4966 47.893 63.134 48.2944 62.6244C48.6958 62.1147 48.9473 61.4821 49.0154 60.8107C49.0835 60.1393 48.9649 59.4609 48.6756 58.8657C48.3862 58.2705 47.9397 57.7868 47.3955 57.4788C46.8513 57.1709 46.2351 57.0532 45.6289 57.1416C45.0226 57.23 44.4552 57.5203 44.0019 57.9737C43.5486 58.4272 43.231 59.0223 43.0913 59.6801V59.6801Z" fill="#FFB8B8"/>
<path d="M29.6768 68.4347L24.3679 72.2414C24.0806 72.4469 23.7312 72.5181 23.3964 72.4393C23.0616 72.3606 22.7688 72.1383 22.5821 71.8213L18.1151 64.2158C17.6366 63.4011 17.448 62.4196 17.5857 61.4604C17.7234 60.5012 18.1776 59.6322 18.8608 59.0212C19.544 58.4101 20.4078 58.1002 21.2855 58.1512C22.1633 58.2021 22.9929 58.6104 23.6144 59.2972L29.887 66.2295C30.023 66.3797 30.1269 66.5617 30.1911 66.7621C30.2553 66.9624 30.2781 67.1761 30.258 67.3875C30.2378 67.5988 30.1752 67.8026 30.0746 67.9837C29.9741 68.1649 29.8381 68.319 29.6768 68.4347Z" fill="#3F3D56"/>
<path d="M12.57 50.5425C13.8845 52.0897 16.3259 51.2591 16.4972 49.1454C16.5106 48.9813 16.5096 48.8162 16.4942 48.6523C16.4058 47.716 15.9163 46.866 16.0335 45.8774C16.0601 45.6313 16.143 45.3969 16.2745 45.1962C17.3221 43.6463 19.7811 45.8894 20.7697 44.4863C21.376 43.626 20.6634 42.2714 21.1285 41.3098C21.7425 40.0407 23.5611 40.6668 24.7015 39.9717C25.9704 39.1984 25.8945 37.0473 25.0593 35.739C24.0406 34.1433 22.2546 33.2919 20.4909 33.1692C18.7271 33.0465 16.9755 33.5733 15.3289 34.2823C13.458 35.0879 11.6028 36.2013 10.4514 38.0189C9.05131 40.2294 8.91657 43.2012 9.6168 45.7859C10.0428 47.3583 11.4965 49.279 12.57 50.5425Z" fill="#2F2E41"/>
<path d="M40.4527 153H0.286899C0.210808 153 0.137834 152.966 0.0840305 152.907C0.0302265 152.847 0 152.767 0 152.683C0 152.599 0.0302265 152.518 0.0840305 152.459C0.137834 152.399 0.210808 152.366 0.286899 152.366H40.4527C40.5288 152.366 40.6018 152.399 40.6556 152.459C40.7094 152.518 40.7396 152.599 40.7396 152.683C40.7396 152.767 40.7094 152.847 40.6556 152.907C40.6018 152.966 40.5288 153 40.4527 153Z" fill="#3F3D56"/>
</g>
<defs>
<clipPath id="clip0">
<rect width="262" height="153" fill="white"/>
</clipPath>
</defs>
</svg>
