<svg width="219" height="174" viewBox="0 0 219 174" fill="none" xmlns="http://www.w3.org/2000/svg">
<g clip-path="url(#clip0)">
<path opacity="0.1" d="M196.128 173.171C206.72 173.171 215.306 170.938 215.306 168.184C215.306 165.43 206.72 163.198 196.128 163.198C185.535 163.198 176.949 165.43 176.949 168.184C176.949 170.938 185.535 173.171 196.128 173.171Z" fill="#7895FF"/>
<path opacity="0.1" d="M26.8285 174.002C37.4207 174.002 46.0073 171.769 46.0073 169.015C46.0073 166.261 37.4207 164.028 26.8285 164.028C16.2363 164.028 7.64966 166.261 7.64966 169.015C7.64966 171.769 16.2363 174.002 26.8285 174.002Z" fill="#7895FF"/>
<path d="M131.181 46.9562C131.181 46.9562 128.485 45.8049 119.914 49.9446C111.343 54.0843 110.266 53.556 108.052 52.9229C105.837 52.2897 104.603 52.1405 102.216 48.6884C102.216 48.6884 100.538 39.1143 98.9154 37.6302C97.2927 36.1462 90.3902 38.4751 90.3902 38.4751C90.3902 38.4751 82.1159 40.4734 80.5392 28.8346C80.5392 28.8346 81.6581 20.0611 80.135 17.3691C80.135 17.3691 83.2003 18.7665 88.2847 16.5121C93.3692 14.2578 97.4211 18.9319 97.4211 18.9319C97.4211 18.9319 98.7008 22.4203 98.5705 24.4992C98.4402 26.5782 99.2468 27.3585 101.668 26.3544C101.668 26.3544 102.856 24.5738 101.172 21.6319C99.4882 18.6899 98.287 16.496 98.7583 14.2114C99.2295 11.9268 100.578 8.76703 104.919 7.17405C109.261 5.58107 115.157 5.28263 117.989 4.04253C120.82 2.80242 121.504 1.99585 121.504 1.99585C121.504 1.99585 119.759 3.83887 123.868 11.6243C127.978 19.4098 125.357 22.7913 125.357 22.7913C125.357 22.7913 123.173 28.268 113.537 27.8324C113.537 27.8324 104.251 28.1893 109.322 32.3351C109.322 32.3351 112.565 31.6394 117.412 30.0182C122.259 28.397 125.759 35.0895 126.627 39.7475C127.495 44.4055 131.181 46.9562 131.181 46.9562Z" fill="#7895FF"/>
<path d="M118.696 7.9062L118.747 7.89209C119.119 9.3782 114.968 15.3529 111.422 20.0976L111.379 20.0633C116.385 13.3667 118.985 9.04952 118.696 7.9062Z" fill="#444053"/>
<path d="M111.454 19.9648L111.475 20.0253C108.642 23.8182 105.078 28.3431 102.226 31.6944C101.954 32.015 101.684 32.3498 101.423 32.6926L101.343 32.622C101.603 32.2792 101.875 31.9425 102.147 31.6138C104.998 28.2725 108.622 23.7557 111.454 19.9648Z" fill="#444053"/>
<path d="M101.412 32.533L101.467 32.6338C96.2755 39.4554 95.9326 50.0477 95.9115 50.1404L94.8157 48.8096C94.8387 48.7168 96.1835 39.4009 101.412 32.533Z" fill="#444053"/>
<path d="M125.16 43.2557C125.16 43.2557 119.029 39.9064 114.268 41.1082C109.508 42.31 98.7506 36.8616 98.7506 36.8616C98.7506 36.8616 94.1891 34.9097 93.2734 32.6875C93.2734 32.6875 90.1449 29.2072 89.9668 27.4045C89.7886 25.6018 86.7425 21.0729 84.7559 20.8975" stroke="#444053" stroke-miterlimit="10"/>
<path d="M124.275 46.4814C124.275 46.4814 121.186 44.2955 121.55 41.7488" stroke="#444053" stroke-miterlimit="10"/>
<path d="M119.545 49.3057C119.545 49.3057 115.138 47.6199 114.694 41.0161" stroke="#444053" stroke-miterlimit="10"/>
<path d="M112.431 51.0158C112.431 51.0158 108.216 47.3359 109.617 40.9075" stroke="#444053" stroke-miterlimit="10"/>
<path d="M103.883 49.2172C103.883 49.2172 101.076 43.0247 103.573 38.9958" stroke="#444053" stroke-miterlimit="10"/>
<path d="M125.232 39.1755C125.232 39.1755 122.043 40.2402 122.726 41.9986" stroke="#444053" stroke-miterlimit="10"/>
<path d="M121.378 33.0833C121.378 33.0833 117.111 34.5089 117.01 40.8606" stroke="#444053" stroke-miterlimit="10"/>
<path d="M115.439 31.6174C115.439 31.6174 111.558 36.6585 111.843 41.2459" stroke="#444053" stroke-miterlimit="10"/>
<path d="M108.634 33.5967C108.634 33.5967 104.778 37.4763 105.27 39.6359" stroke="#444053" stroke-miterlimit="10"/>
<path d="M106.308 32.2248C106.308 32.2248 102.691 32.9084 102.186 31.6582" stroke="#444053" stroke-miterlimit="10"/>
<path d="M101.609 27.6292C101.609 27.6292 103.437 30.1759 103.908 29.6053" stroke="#444053" stroke-miterlimit="10"/>
<path d="M119.722 26.0177C119.722 26.0177 110.607 26.7093 108.542 23.8218" stroke="#444053" stroke-miterlimit="10"/>
<path d="M99.6912 14.7949C99.6912 14.7949 103.969 24.4597 107.075 25.6837" stroke="#444053" stroke-miterlimit="10"/>
<path d="M104.178 10.1909C104.178 10.1909 106.806 19.0814 110.061 21.856" stroke="#444053" stroke-miterlimit="10"/>
<path d="M123.56 18.6818C123.56 18.6818 116.627 21.8133 112.464 18.6455" stroke="#444053" stroke-width="0.75" stroke-miterlimit="10"/>
<path d="M110.354 8.29517C110.354 8.29517 111.939 14.8304 114.073 16.4093" stroke="#444053" stroke-width="0.75" stroke-miterlimit="10"/>
<path d="M122.512 11.3625C122.512 11.3625 118.617 12.9152 117.161 11.7255" stroke="#444053" stroke-width="0.75" stroke-miterlimit="10"/>
<path d="M98.2716 29.7646C98.2716 29.7646 98.2716 35.4611 96.7983 35.8664" stroke="#444053" stroke-miterlimit="10"/>
<path d="M86.2273 37.145C86.2273 37.145 92.0781 37.6733 94.7774 34.4954" stroke="#444053" stroke-miterlimit="10"/>
<path d="M96.7619 23.0356C96.7619 23.0356 95.3462 28.8127 91.4399 30.3694" stroke="#444053" stroke-miterlimit="10"/>
<path d="M82.7175 31.0587C82.7175 31.0587 86.8594 32.575 90.4208 28.7156" stroke="#444053" stroke-miterlimit="10"/>
<path d="M92.1566 18.0701C92.1566 18.0701 91.7734 22.976 89.2312 25.2728" stroke="#444053" stroke-miterlimit="10"/>
<path d="M82.8706 23.5826C82.8706 23.5826 86.3075 23.6088 87.1121 22.4292" stroke="#444053" stroke-miterlimit="10"/>
<path opacity="0.1" d="M113.408 27.7181C99.7295 30.1196 86.0298 28.8271 72.8416 27.0365C59.6534 25.2459 46.4959 22.9593 32.7885 23.4069C23.9759 23.6973 14.1729 25.5201 8.07499 31.1137C2.20888 36.4956 1.36977 43.8536 1.42533 50.5078C1.46747 55.5126 1.91385 60.6968 5.13427 64.7216C7.36998 67.5144 10.7877 69.5429 13.3721 72.126C22.3763 81.1152 19.8225 95.0407 14.1212 106.833C11.4391 112.366 8.1612 117.796 6.36228 123.468C4.56337 129.141 4.3852 135.25 7.77229 139.947C11.1326 144.603 17.56 147.285 24.248 148.722C37.8289 151.64 52.9022 150.134 67.4813 148.039C99.7506 143.379 131.66 135.841 163.477 128.318C175.253 125.535 187.081 122.736 198.411 118.639C204.703 116.369 211.103 113.511 215.132 108.992C220.245 103.256 220.291 95.3371 215.239 90.534C206.764 82.4682 187.803 83.9846 181.215 74.8058C177.587 69.7647 179.064 62.9855 181.836 57.0269C187.775 44.2427 199.413 31.6904 197.737 18.8437C196.587 10.0198 188.468 2.63161 177.682 0.588963C166.379 -1.55047 151.933 2.02265 145.54 10.7961C138.957 19.854 125.485 25.6008 113.408 27.7181Z" fill="#7895FF"/>
<path d="M194.285 30.2688H17.0083C15.6868 30.2688 14.6155 31.3964 14.6155 32.7873V136.301C14.6155 137.692 15.6868 138.819 17.0083 138.819H194.285C195.606 138.819 196.677 137.692 196.677 136.301V32.7873C196.677 31.3964 195.606 30.2688 194.285 30.2688Z" fill="url(#paint0_linear)"/>
<path d="M194.016 31.7954H17.2976C15.9761 31.7954 14.9048 32.923 14.9048 34.3139V135.94C14.9048 137.331 15.9761 138.459 17.2976 138.459H194.016C195.338 138.459 196.409 137.331 196.409 135.94V34.3139C196.409 32.923 195.338 31.7954 194.016 31.7954Z" fill="white"/>
<path d="M194.016 31.7954H17.2976C15.9761 31.7954 14.9048 32.923 14.9048 34.3139V135.94C14.9048 137.331 15.9761 138.459 17.2976 138.459H194.016C195.338 138.459 196.409 137.331 196.409 135.94V34.3139C196.409 32.923 195.338 31.7954 194.016 31.7954Z" fill="white"/>
<path opacity="0.04" d="M194.016 31.7954H17.2976C15.9761 31.7954 14.9048 32.923 14.9048 34.3139V135.94C14.9048 137.331 15.9761 138.459 17.2976 138.459H194.016C195.338 138.459 196.409 137.331 196.409 135.94V34.3139C196.409 32.923 195.338 31.7954 194.016 31.7954Z" fill="#5A5773"/>
<path d="M195.488 30.5715H15.8185C15.5741 30.5715 15.3397 30.6737 15.1669 30.8556C14.9941 31.0375 14.897 31.2842 14.897 31.5414V35.6429H196.401V31.5495C196.402 31.4221 196.38 31.2958 196.334 31.1777C196.289 31.0596 196.222 30.9521 196.137 30.8613C196.052 30.7705 195.951 30.6982 195.84 30.6484C195.728 30.5987 195.609 30.5726 195.488 30.5715Z" fill="#5A5773"/>
<path d="M18.5294 34.4168C19.2172 34.4168 19.7747 33.83 19.7747 33.1061C19.7747 32.3822 19.2172 31.7954 18.5294 31.7954C17.8417 31.7954 17.2842 32.3822 17.2842 33.1061C17.2842 33.83 17.8417 34.4168 18.5294 34.4168Z" fill="white"/>
<path d="M21.882 34.4168C22.5697 34.4168 23.1272 33.83 23.1272 33.1061C23.1272 32.3822 22.5697 31.7954 21.882 31.7954C21.1942 31.7954 20.6367 32.3822 20.6367 33.1061C20.6367 33.83 21.1942 34.4168 21.882 34.4168Z" fill="white"/>
<path d="M25.2348 34.4168C25.9225 34.4168 26.48 33.83 26.48 33.1061C26.48 32.3822 25.9225 31.7954 25.2348 31.7954C24.547 31.7954 23.9895 32.3822 23.9895 33.1061C23.9895 33.83 24.547 34.4168 25.2348 34.4168Z" fill="white"/>
<path d="M176.449 59.2554H29.0069C27.9287 59.2554 27.0547 60.1753 27.0547 61.3101V136.402C27.0547 137.537 27.9287 138.457 29.0069 138.457H176.449C177.527 138.457 178.401 137.537 178.401 136.402V61.3101C178.401 60.1753 177.527 59.2554 176.449 59.2554Z" fill="white"/>
<path opacity="0.2" d="M63.4313 41.0249H21.3762C20.9678 41.0249 20.6367 41.3734 20.6367 41.8032V45.0557C20.6367 45.4856 20.9678 45.8341 21.3762 45.8341H63.4313C63.8397 45.8341 64.1708 45.4856 64.1708 45.0557V41.8032C64.1708 41.3734 63.8397 41.0249 63.4313 41.0249Z" fill="#5A5773"/>
<path opacity="0.2" d="M145.522 68.4485H103.467C103.059 68.4485 102.728 68.797 102.728 69.2268V72.4793C102.728 72.9092 103.059 73.2577 103.467 73.2577H145.522C145.931 73.2577 146.262 72.9092 146.262 72.4793V69.2268C146.262 68.797 145.931 68.4485 145.522 68.4485Z" fill="#7895FF"/>
<path opacity="0.2" d="M169.966 81.9131H103.467C103.059 81.9131 102.728 82.2616 102.728 82.6914V85.9439C102.728 86.3738 103.059 86.7223 103.467 86.7223H169.966C170.374 86.7223 170.705 86.3738 170.705 85.9439V82.6914C170.705 82.2616 170.374 81.9131 169.966 81.9131Z" fill="#7895FF"/>
<path opacity="0.2" d="M169.966 89.7773H103.467C103.059 89.7773 102.728 90.1258 102.728 90.5557V93.8082C102.728 94.238 103.059 94.5865 103.467 94.5865H169.966C170.374 94.5865 170.705 94.238 170.705 93.8082V90.5557C170.705 90.1258 170.374 89.7773 169.966 89.7773Z" fill="#7895FF"/>
<path opacity="0.2" d="M169.966 97.6416H103.467C103.059 97.6416 102.728 97.9901 102.728 98.4199V101.672C102.728 102.102 103.059 102.451 103.467 102.451H169.966C170.374 102.451 170.705 102.102 170.705 101.672V98.4199C170.705 97.9901 170.374 97.6416 169.966 97.6416Z" fill="#7895FF"/>
<path opacity="0.2" d="M169.966 105.506H103.467C103.059 105.506 102.728 105.854 102.728 106.284V109.537C102.728 109.967 103.059 110.315 103.467 110.315H169.966C170.374 110.315 170.705 109.967 170.705 109.537V106.284C170.705 105.854 170.374 105.506 169.966 105.506Z" fill="#7895FF"/>
<path opacity="0.2" d="M169.966 114.176H35.9993C35.5908 114.176 35.2598 114.525 35.2598 114.955V118.207C35.2598 118.637 35.5908 118.985 35.9993 118.985H169.966C170.374 118.985 170.705 118.637 170.705 118.207V114.955C170.705 114.525 170.374 114.176 169.966 114.176Z" fill="#7895FF"/>
<path opacity="0.2" d="M169.966 122.041H35.9993C35.5908 122.041 35.2598 122.389 35.2598 122.819V126.071C35.2598 126.501 35.5908 126.85 35.9993 126.85H169.966C170.374 126.85 170.705 126.501 170.705 126.071V122.819C170.705 122.389 170.374 122.041 169.966 122.041Z" fill="#7895FF"/>
<path opacity="0.2" d="M169.966 129.905H35.9993C35.5908 129.905 35.2598 130.253 35.2598 130.683V133.936C35.2598 134.365 35.5908 134.714 35.9993 134.714H169.966C170.374 134.714 170.705 134.365 170.705 133.936V130.683C170.705 130.253 170.374 129.905 169.966 129.905Z" fill="#7895FF"/>
<path d="M139.717 133.085C139.717 133.085 140.853 134.647 139.192 137.009C137.532 139.37 136.164 141.362 136.717 142.834C136.717 142.834 139.221 138.45 141.261 138.398C143.302 138.346 141.961 135.72 139.717 133.085Z" fill="#7895FF"/>
<path opacity="0.1" d="M139.718 133.085C139.817 133.236 139.895 133.401 139.949 133.575C141.94 136.035 142.999 138.331 141.087 138.388C139.306 138.442 137.168 141.796 136.656 142.641C136.672 142.709 136.693 142.777 136.718 142.842C136.718 142.842 139.221 138.459 141.262 138.406C143.302 138.354 141.961 135.72 139.718 133.085Z" fill="black"/>
<path d="M141.829 135.078C141.829 135.628 141.771 136.074 141.698 136.074C141.626 136.074 141.568 135.628 141.568 135.078C141.568 134.527 141.641 134.787 141.714 134.787C141.787 134.787 141.829 134.527 141.829 135.078Z" fill="#FFD037"/>
<path d="M142.555 135.734C142.095 135.996 141.695 136.156 141.66 136.089C141.626 136.022 141.97 135.754 142.426 135.484C142.882 135.214 142.704 135.412 142.739 135.484C142.773 135.557 143.013 135.47 142.555 135.734Z" fill="#FFD037"/>
<path d="M133.717 133.085C133.717 133.085 132.581 134.647 134.24 137.009C135.899 139.37 137.271 141.362 136.717 142.834C136.717 142.834 134.212 138.45 132.173 138.398C130.135 138.346 131.474 135.72 133.717 133.085Z" fill="#7895FF"/>
<path opacity="0.1" d="M133.717 133.085C133.617 133.235 133.539 133.4 133.484 133.575C131.495 136.035 130.436 138.331 132.348 138.388C134.129 138.442 136.265 141.796 136.777 142.641C136.761 142.709 136.742 142.777 136.717 142.842C136.717 142.842 134.212 138.459 132.173 138.406C130.135 138.354 131.474 135.72 133.717 133.085Z" fill="black"/>
<path d="M131.604 135.076C131.604 135.627 131.664 136.072 131.736 136.072C131.809 136.072 131.867 135.627 131.867 135.076C131.867 134.526 131.794 134.79 131.723 134.79C131.652 134.79 131.604 134.526 131.604 135.076Z" fill="#FFD037"/>
<path d="M130.88 135.734C131.34 135.996 131.74 136.156 131.775 136.089C131.809 136.022 131.464 135.754 131.008 135.484C130.552 135.214 130.731 135.412 130.696 135.484C130.662 135.557 130.42 135.47 130.88 135.734Z" fill="#FFD037"/>
<path opacity="0.1" d="M136.717 154.794C143.277 154.794 148.595 153.935 148.595 152.876C148.595 151.817 143.277 150.958 136.717 150.958C130.157 150.958 124.84 151.817 124.84 152.876C124.84 153.935 130.157 154.794 136.717 154.794Z" fill="#7895FF"/>
<path d="M142.834 140.728L142.777 141.216L142.698 141.905L142.664 142.194L142.585 142.883L142.551 143.172L142.47 143.859L141.562 151.703C141.48 152.403 140.394 152.949 139.072 152.949H134.355C133.043 152.949 131.959 152.403 131.878 151.703L130.966 143.865L130.888 143.178L130.853 142.889L130.773 142.2L130.74 141.911L130.66 141.222L130.602 140.734C130.558 140.33 131.146 140.004 131.888 140.004H141.547C142.288 139.998 142.877 140.33 142.834 140.728Z" fill="#65617D"/>
<path d="M142.773 141.215L142.695 141.904H130.74L130.66 141.215H142.773Z" fill="#9D9CB5"/>
<path d="M142.66 142.191L142.582 142.881H130.853L130.773 142.191H142.66Z" fill="#9D9CB5"/>
<path d="M142.547 143.169L142.467 143.859H130.966L130.888 143.169H142.547Z" fill="#9D9CB5"/>
<path opacity="0.2" d="M91.4878 65.7805H36.8882C35.9888 65.7805 35.2598 66.5479 35.2598 67.4945V108.739C35.2598 109.685 35.9888 110.453 36.8882 110.453H91.4878C92.3871 110.453 93.1162 109.685 93.1162 108.739V67.4945C93.1162 66.5479 92.3871 65.7805 91.4878 65.7805Z" fill="#7895FF"/>
<path d="M215.534 115.463C215.607 115.262 215.067 114.108 215.067 114.052C215.067 113.995 214.509 113.356 214.509 112.999C214.509 112.642 213.772 111.87 213.772 111.87C213.772 111.87 212.781 111.439 212.674 110.497C212.567 109.555 211.488 109.539 211.486 109.539C211.486 109.539 211.486 109.454 211.486 109.323C211.508 108.952 211.463 108.579 211.354 108.224C211.227 107.964 211.007 107.768 210.743 107.678C210.743 107.678 210.634 106.944 210.419 106.718C210.299 106.586 210.213 106.425 210.169 106.248C210.125 106.072 210.124 105.887 210.166 105.71C210.275 105.355 210.023 104.452 209.501 104.319C208.98 104.185 208.385 103.98 208.385 103.98L208.241 104.006L208.17 103.98C208.043 104.005 207.915 104.022 207.787 104.03C207.677 104.034 207.569 103.997 207.482 103.925C207.302 103.724 205.844 103.32 205.566 103.32C205.289 103.32 204.522 102.943 204.522 102.943C204.522 102.943 203.982 102.512 203.756 102.322C203.53 102.133 203.137 101.445 203.078 101.34V101.326C203.012 101.166 202.957 101.001 202.915 100.832C203.178 100.542 203.403 100.216 203.584 99.8623C203.603 99.826 203.62 99.7897 203.637 99.7514C203.677 99.7514 203.716 99.7453 203.754 99.7332L203.802 99.713C203.893 99.6635 203.973 99.5956 204.039 99.5132C204.105 99.4309 204.154 99.3357 204.185 99.2331C204.199 99.1921 204.21 99.1504 204.22 99.1081C204.22 99.094 204.22 99.0799 204.22 99.0658L204.237 98.9811C204.236 98.965 204.236 98.9488 204.237 98.9327L204.248 98.848V98.7996C204.248 98.7633 204.248 98.729 204.262 98.6927C204.273 98.5573 204.292 98.4227 204.317 98.2894C204.425 97.7793 204.718 97.3478 204.923 96.8779C204.951 96.8114 204.98 96.7428 205.005 96.6763C205.03 96.6098 205.055 96.5251 205.076 96.4484L205.093 96.3779C205.107 96.3214 205.118 96.2649 205.13 96.2085C205.141 96.152 205.13 96.1581 205.143 96.1319C205.155 96.0552 205.164 95.9766 205.172 95.8959C205.206 95.446 205.14 94.9939 204.98 94.5752C204.846 94.2223 204.645 93.9037 204.509 93.5508C204.302 93.0165 204.246 92.4095 203.996 91.8994C203.791 91.4854 203.453 91.1616 203.042 90.9858C202.632 90.8099 202.175 90.7935 201.754 90.9395C201.371 91.0928 201.022 91.3892 200.626 91.5223C200.093 91.7018 199.526 91.5667 198.974 91.488C198.423 91.4094 197.825 91.3993 197.373 91.7784C196.863 92.2139 196.725 93.0326 196.246 93.5105C196.055 93.7121 195.796 93.8392 195.583 94.0247C195.434 94.1508 195.319 94.3164 195.25 94.5046L195.239 94.5429C195.234 94.5594 195.23 94.5763 195.227 94.5933C195.223 94.6119 195.22 94.6308 195.217 94.6498C195.216 94.6625 195.216 94.6753 195.217 94.6881C195.214 94.7216 195.214 94.7554 195.217 94.7889C195.22 94.8208 195.225 94.8524 195.231 94.8837V94.9099C195.231 94.9361 195.244 94.9623 195.254 94.9885C195.263 95.0148 195.254 94.9986 195.254 95.0027C195.254 95.0067 195.275 95.0611 195.286 95.0894L195.304 95.1317C195.304 95.1438 195.304 95.1559 195.319 95.166C195.387 95.306 195.443 95.4525 195.486 95.6036C195.508 95.6993 195.502 95.7998 195.468 95.8919C195.423 95.9967 195.358 96.0907 195.277 96.1682C194.918 96.56 194.642 97.0263 194.465 97.5373C194.443 97.5965 194.424 97.6549 194.407 97.7127H194.432C194.483 97.7282 194.536 97.7397 194.589 97.747C194.619 97.7489 194.649 97.7489 194.679 97.747C194.802 97.7547 194.926 97.7452 195.047 97.7188L195.139 97.6946C195.264 97.6602 195.386 97.6136 195.503 97.5555C195.503 97.5938 195.503 97.6321 195.503 97.6704C195.503 97.7087 195.503 97.7127 195.503 97.7349C195.504 98.567 195.726 99.3823 196.143 100.089C196.56 100.796 197.157 101.366 197.865 101.736C197.865 101.776 197.875 101.816 197.88 101.857L197.892 101.959L197.844 101.911C197.844 101.911 197.52 101.742 197.214 102.23C196.989 102.55 196.684 102.798 196.332 102.945C196.332 102.945 193.056 103.49 192.93 103.942L191.397 104.036C191.397 104.036 190.857 104.111 190.803 105.297C190.75 106.482 190.462 106.593 190.462 106.593C190.462 106.593 189.832 107.761 189.888 108.362C189.895 108.545 189.853 108.727 189.767 108.886C189.681 109.046 189.554 109.177 189.401 109.265L189.33 110.338C189.33 110.338 188.736 110.243 188.564 110.977C188.495 111.365 188.342 111.732 188.116 112.048C188.116 112.048 187.125 112.915 187.072 113.647L186.459 114.05C186.459 114.05 185.037 113.711 184.713 113.11C184.713 113.11 184.675 113.07 184.614 113.011V112.997C184.401 112.796 183.951 112.344 184.02 112.447C184.062 112.541 184.072 112.648 184.048 112.749L183.943 112.626L183.66 112.296C183.66 112.296 181.361 110.029 180.02 109.85C180.002 109.813 179.914 109.446 179.684 109.678C179.494 109.862 179.342 110.086 179.237 110.334C179.133 110.583 179.078 110.852 179.077 111.124C179.076 111.396 179.128 111.665 179.23 111.915C179.332 112.165 179.482 112.39 179.671 112.576L181.824 114.691L181.88 114.733L182.342 115.359C182.263 115.56 182.198 115.746 182.15 115.919V115.937L182.115 116.046C182.111 116.058 182.108 116.07 182.106 116.082C182.094 116.119 182.085 116.153 182.075 116.187L182.058 116.248C182.058 116.26 182.058 116.272 182.058 116.284C182.006 116.474 181.974 116.619 181.958 116.699L181.838 116.659L181.955 116.714V116.732C181.955 116.758 181.955 116.772 181.955 116.772L182.066 116.822C182.696 117.111 185.842 118.565 186.003 118.784C186.163 119.004 187.37 119.744 188.451 119.141C189.531 118.538 189.763 117.619 189.763 117.619C189.763 117.619 190.807 116.095 190.844 115.869C190.88 115.643 191.689 115.381 191.689 115.381C191.689 115.381 191.761 117.899 191.348 118.823C190.934 119.746 190.16 123.826 190.16 123.826C190.211 123.818 190.262 123.818 190.313 123.826L190.267 124.061C190.33 124.049 190.395 124.049 190.459 124.061C190.401 124.525 190.076 126.683 190.076 126.683C190.076 126.683 189.968 127.661 189.788 128C189.608 128.338 189.597 130.107 189.597 130.107L189.307 131.385C189.307 131.385 189.346 131.474 189.416 131.605C189.61 132.04 189.893 132.425 190.244 132.732C190.221 132.933 190.172 133.13 190.098 133.317C189.987 133.603 189.938 133.912 189.955 134.22C189.955 134.22 189.65 135.668 189.685 136.081C189.719 136.495 189.493 137.511 189.493 137.511L189.169 140.784C189.169 140.784 188.955 143.623 189.062 144.395C189.114 145.001 189.089 145.611 188.989 146.21C188.989 146.21 189.206 148.448 189.152 148.692C189.098 148.936 188.828 149.991 188.989 150.574C189.15 151.156 189.062 152.755 189.062 152.755C189.062 152.755 189.169 154.863 189.296 155.54C189.363 156.053 189.351 156.574 189.259 157.083C189.259 157.083 189.133 158.53 189.079 158.53C189.026 158.53 188.558 159.527 189.51 160.504C190.462 161.482 189.872 161.331 189.872 161.331C189.872 161.331 189.106 160.928 189.206 161.747C189.29 162.515 189.409 162.315 189.42 162.293L189.24 162.912L189.367 162.93L189.263 163.061C189.155 163.208 189.033 163.343 188.899 163.465C188.759 163.609 188.676 163.803 188.665 164.009C188.665 164.009 187.334 165.533 186.093 166.304C185.439 166.707 184.876 167.052 184.631 167.338C184.409 167.592 184.439 167.798 184.905 167.959C185.876 168.298 187.587 168.467 188.809 168.034C189.542 167.779 190.201 167.333 190.725 166.737C190.725 166.737 191.491 166.322 192.258 166.473C193.024 166.624 194.526 165.59 194.526 165.59L194.497 165.324L194.419 164.553C194.368 164.489 194.33 164.414 194.309 164.334C194.287 164.253 194.281 164.169 194.292 164.086C194.301 163.858 194.28 163.63 194.229 163.408C194.215 163.334 194.202 163.259 194.189 163.19L194.327 163.162C194.327 163.162 194.148 162.204 194.472 162.015C194.796 161.825 194.704 159.363 194.704 159.363C194.704 159.363 194.292 158.799 194.076 158.706C193.859 158.613 194.056 157.444 194.095 157.294C194.133 157.145 194.419 154.227 194.419 154.227C194.419 154.227 194.309 153.308 194.453 152.913C194.597 152.517 194.273 150.993 194.273 150.993C194.243 150.923 194.236 150.845 194.252 150.77C194.268 150.696 194.307 150.629 194.363 150.58C194.555 150.354 194.489 148.341 194.489 148.341C194.489 148.341 194.472 147.333 194.472 147.061C194.472 146.789 194.687 145.839 194.886 145.52C195.085 145.202 194.957 144.204 194.957 144.204L194.968 144.129C194.968 144.101 194.968 144.065 194.984 144.022L194.999 143.921C195.087 143.37 195.205 142.825 195.352 142.288C195.585 141.5 195.855 140.108 195.855 140.108L197.528 135.515L197.547 135.46C197.547 135.46 198.313 136.965 198.313 138.358C198.313 138.358 198.505 140.032 198.459 140.483C198.413 140.935 198.583 143.058 198.583 143.058C198.583 143.058 198.817 146.105 198.817 146.236C198.817 146.367 199.106 148.718 199.287 149.077C199.467 149.436 199.106 150.525 198.997 150.638C198.888 150.751 199.034 153.516 199.034 153.516C199.034 153.516 198.764 155.697 198.71 156.149C198.656 156.601 198.44 158.331 198.62 159.008C198.8 159.686 198.727 159.779 198.727 159.779C198.727 159.779 199.377 160.476 198.997 160.533C198.86 160.564 198.73 160.627 198.617 160.715C198.504 160.804 198.41 160.917 198.342 161.047C198.274 161.176 198.233 161.32 198.222 161.468C198.21 161.616 198.229 161.764 198.277 161.904C198.502 162.592 198.767 163.266 199.07 163.92L199.369 163.854V164.078L199.39 165.199C199.39 165.199 199.516 166.269 199.444 166.515C199.392 166.693 199.319 167.536 199.285 167.977C199.271 168.139 199.264 168.246 199.264 168.246C199.264 168.246 199.264 169.242 201.262 168.941C203.26 168.641 203.618 167.812 203.618 167.812L203.633 167.709C203.662 167.52 203.727 167.116 203.781 166.891C203.852 166.59 203.206 165.235 203.206 165.235C203.206 165.235 203.099 164.314 202.919 164.108C202.843 163.986 202.794 163.848 202.773 163.705C202.758 163.628 202.743 163.549 202.731 163.473C202.776 163.478 202.821 163.486 202.865 163.497C202.865 163.497 202.756 162.84 203.172 162.632C203.587 162.424 203.476 161.993 203.423 161.805C203.369 161.618 203.584 160.563 203.584 160.563C203.553 160.458 203.55 160.346 203.576 160.24C203.601 160.133 203.653 160.036 203.727 159.958C203.98 159.694 204.178 157.851 204.178 157.851L204.214 150.741C204.214 150.741 204.34 149.481 204.197 148.972C204.053 148.464 203.909 147.486 204.107 147.222C204.304 146.958 204.124 145.738 204.124 145.738C204.124 145.738 204.124 143.161 204.394 142.512C204.664 141.863 204.574 137.828 204.574 137.828L204.645 135.176C204.645 135.176 205.233 134.591 205.095 131.546C205.722 131.504 206.436 131.48 206.536 131.573C206.727 131.742 208.011 132.607 208.768 132.061C209.08 131.835 209.38 131.59 209.666 131.329L209.348 125.683C209.54 125.997 209.666 126.205 209.666 126.205C209.666 125.417 211.791 122.858 211.791 122.858C211.791 122.858 213.77 120.168 214.201 119.849C214.632 119.531 215.479 117.833 215.479 117.833C215.604 117.51 215.748 117.196 215.912 116.893C216.111 116.572 215.463 115.669 215.534 115.463ZM210.892 117.437C210.352 117.494 209.218 118.793 209.201 119.075C209.161 119.261 209.079 119.434 208.961 119.579C208.961 119.466 208.944 119.351 208.934 119.234C208.808 117.571 208.67 115.546 208.743 115.35C208.85 115.012 208.814 113.487 208.814 113.487L208.835 113.457C209.197 114.639 210.323 116.03 210.323 116.03C210.323 116.03 210.515 116.635 210.756 116.649C210.998 116.663 210.892 117.437 210.892 117.437Z" fill="url(#paint1_linear)"/>
<path d="M182.041 117.007C182.041 117.007 182.698 113.378 184.807 113.378L186.351 116.719L185.322 117.465C185.322 117.465 183.087 117.53 182.041 117.007Z" fill="#65617D"/>
<path opacity="0.1" d="M186.351 116.709L185.322 117.455C185.322 117.455 183.75 117.507 182.625 117.217C182.424 117.17 182.229 117.103 182.041 117.015L182.052 116.957V116.945C182.148 116.49 182.282 116.045 182.451 115.614C182.516 115.451 182.589 115.283 182.669 115.116C182.978 114.491 183.412 113.876 184.01 113.573C184.229 113.457 184.468 113.388 184.713 113.372H184.807L184.842 113.446L185.363 114.575L186.351 116.709Z" fill="black"/>
<path d="M203.873 131.754C203.873 131.754 206.09 131.53 206.285 131.699C206.48 131.869 207.739 132.726 208.482 132.183C209.226 131.641 208.731 129.764 208.731 129.683C208.731 129.602 208.661 126.939 208.661 126.939L207.331 125.053L205.664 121.75L202.258 121.396L202.346 126.638L202.329 129.326L203.873 131.754Z" fill="#65617D"/>
<path opacity="0.1" d="M203.873 131.754C203.873 131.754 206.09 131.53 206.285 131.699C206.48 131.869 207.739 132.726 208.482 132.183C209.226 131.641 208.731 129.764 208.731 129.683C208.731 129.602 208.661 126.939 208.661 126.939L207.331 125.053L205.664 121.75L202.258 121.396L202.346 126.638L202.329 129.326L203.873 131.754Z" fill="black"/>
<path d="M184.365 113.275C184.365 113.275 184.187 115.551 182.832 115.59C182.832 115.59 182.449 115.348 181.936 114.942C180.752 114.009 178.87 112.216 179.391 110.549C180.137 108.159 183.754 112.565 183.754 112.565L184.033 112.894L184.365 113.275Z" fill="#FBBEBE"/>
<path opacity="0.1" d="M184.365 113.276C184.365 113.276 184.187 115.552 182.832 115.591C182.832 115.591 182.449 115.349 181.935 114.943L181.821 114.788C182.05 114.911 182.303 114.98 182.56 114.99C182.762 114.998 182.963 114.941 183.134 114.827C183.305 114.713 183.439 114.547 183.518 114.35C183.663 114.057 183.791 113.755 183.901 113.445C183.964 113.264 184.01 113.077 184.037 112.886L184.365 113.276Z" fill="black"/>
<path d="M183.779 117.401L183.476 116.998L182.455 115.614L181.936 114.907C182.164 115.03 182.416 115.099 182.673 115.108C182.876 115.118 183.076 115.061 183.247 114.947C183.419 114.833 183.553 114.666 183.631 114.469C183.773 114.176 183.898 113.875 184.005 113.566C184.173 113.062 184.169 112.804 184.11 112.715C184.051 112.626 184.493 113.054 184.696 113.263L184.794 113.36L184.83 113.437L185.365 114.526C185.366 114.541 185.366 114.557 185.365 114.572C185.403 114.915 185.576 117.09 183.779 117.401Z" fill="#E7EFFD"/>
<path d="M194.404 165.441C194.404 165.441 192.913 166.469 192.168 166.318C191.652 166.25 191.128 166.341 190.66 166.58C190.148 167.171 189.501 167.614 188.781 167.869C187.574 168.298 185.89 168.129 184.932 167.794C184.48 167.635 184.443 167.429 184.662 167.177C184.88 166.925 185.459 166.554 186.102 166.151C187.327 165.384 188.639 163.874 188.639 163.874C188.647 163.669 188.729 163.475 188.869 163.332C189.001 163.21 189.121 163.075 189.227 162.928C189.419 162.692 189.597 162.444 189.597 162.444L193.986 162.618C193.986 162.618 194.061 162.95 194.12 163.291C194.17 163.511 194.191 163.737 194.181 163.963C194.17 164.045 194.176 164.129 194.197 164.209C194.219 164.289 194.256 164.364 194.306 164.429L194.384 165.191L194.404 165.441Z" fill="#65617D"/>
<path d="M203.565 166.734C203.513 166.958 203.448 167.357 203.419 167.541C203.419 167.603 203.406 167.644 203.406 167.644C203.406 167.644 203.051 168.464 201.082 168.763C199.112 169.061 199.114 168.073 199.114 168.073L199.133 167.805C199.168 167.369 199.239 166.533 199.29 166.355C199.361 166.113 199.239 165.049 199.239 165.049L199.218 163.936L199.202 163.163L202.459 162.808C202.48 163.065 202.515 163.32 202.565 163.573C202.584 163.717 202.633 163.854 202.708 163.976C202.885 164.177 202.992 165.095 202.992 165.095C202.992 165.095 203.641 166.436 203.565 166.734Z" fill="#65617D"/>
<path opacity="0.1" d="M193.986 162.617C193.986 162.617 194.06 162.95 194.12 163.291C193.647 163.381 191.578 163.758 191.055 163.492C190.468 163.194 189.21 163.026 189.21 163.026L189.231 162.95C189.422 162.714 189.601 162.466 189.601 162.466L193.986 162.617Z" fill="black"/>
<path opacity="0.1" d="M202.576 163.58C201.75 163.432 199.936 163.781 199.223 163.943L199.208 163.17L202.465 162.815C202.488 163.072 202.525 163.327 202.576 163.58Z" fill="black"/>
<path d="M204.421 135.282L204.352 137.903C204.352 137.903 204.44 141.916 204.174 142.541C203.907 143.166 203.907 145.733 203.907 145.733C203.907 145.733 204.086 146.943 203.89 147.207C203.695 147.471 203.837 148.439 203.978 148.943C204.12 149.447 203.996 150.697 203.996 150.697L203.961 157.755C203.961 157.755 203.769 159.584 203.517 159.846C203.444 159.924 203.392 160.022 203.368 160.128C203.343 160.234 203.345 160.346 203.375 160.451C203.375 160.451 203.162 161.495 203.216 161.683C203.269 161.87 203.375 162.298 202.969 162.504C202.563 162.709 202.666 163.363 202.666 163.363C201.691 163.119 198.924 163.766 198.924 163.766C198.626 163.117 198.365 162.45 198.143 161.768C198.095 161.629 198.076 161.482 198.087 161.335C198.097 161.188 198.138 161.046 198.205 160.917C198.272 160.788 198.365 160.675 198.477 160.587C198.589 160.498 198.717 160.436 198.854 160.404C199.225 160.35 198.587 159.658 198.587 159.658C198.587 159.658 198.658 159.566 198.48 158.892C198.302 158.219 198.516 156.503 198.57 156.055C198.624 155.607 198.888 153.434 198.888 153.434C198.888 153.434 198.746 150.689 198.854 150.578C198.961 150.467 199.313 149.383 199.137 149.03C198.961 148.677 198.675 146.342 198.675 146.207C198.675 146.072 198.446 143.051 198.446 143.051C198.446 143.051 198.233 140.942 198.287 140.494C198.34 140.047 198.143 138.385 198.143 138.385C198.143 137.004 197.377 135.51 197.377 135.51L197.357 135.564L195.71 140.153C195.71 140.153 195.444 141.535 195.214 142.319C195.068 142.849 194.953 143.388 194.867 143.932L194.852 144.033L194.836 144.138L194.825 144.212C194.825 144.212 194.947 145.201 194.752 145.519C194.534 146.001 194.397 146.519 194.346 147.05C194.346 147.312 194.363 148.32 194.363 148.32C194.363 148.32 194.434 150.316 194.238 150.538C194.185 150.587 194.147 150.652 194.131 150.724C194.116 150.797 194.122 150.873 194.15 150.941C194.15 150.941 194.468 152.454 194.327 152.845C194.185 153.236 194.292 154.151 194.292 154.151C194.292 154.151 194.009 157.045 193.972 157.194C193.936 157.343 193.742 158.501 193.955 158.594C194.168 158.686 194.576 159.247 194.576 159.247C194.576 159.247 194.664 161.693 194.346 161.878C194.028 162.064 194.202 163.018 194.202 163.018C194.202 163.018 191.631 163.54 191.047 163.242C190.462 162.943 189.202 162.776 189.202 162.776L189.378 162.171C189.367 162.193 189.25 162.393 189.167 161.628C189.077 160.822 189.823 161.225 189.823 161.225C189.823 161.225 190.409 161.374 189.468 160.404C188.528 159.435 188.989 158.444 189.043 158.444C189.097 158.444 189.219 157.007 189.219 157.007C189.31 156.502 189.322 155.985 189.256 155.476C189.131 154.805 189.026 152.714 189.026 152.714C189.026 152.714 189.114 151.127 188.953 150.548C188.792 149.969 189.06 148.935 189.114 148.681C189.167 148.427 188.953 146.217 188.953 146.217C189.053 145.618 189.077 145.008 189.026 144.402C188.918 143.636 189.131 140.817 189.131 140.817L189.451 137.57C189.451 137.57 189.681 136.562 189.643 136.159C189.604 135.756 189.909 134.312 189.909 134.312C189.892 134.005 189.94 133.699 190.051 133.414C190.229 133.041 190.3 131.801 190.3 131.801L192.003 127.696L192.836 124.066L204.097 123.953C204.097 123.953 204.137 124.268 204.206 124.839C204.275 125.409 204.371 126.25 204.478 127.297C204.576 128.244 204.683 129.359 204.789 130.6C205.132 134.572 204.421 135.282 204.421 135.282Z" fill="#3F3D56"/>
<path d="M203.373 102.598L200.75 105.552C200.75 105.552 197.382 104.14 197.737 103.646C197.873 103.459 197.852 102.866 197.773 102.212C197.649 101.178 197.39 99.9944 197.39 99.9944C197.39 99.9944 203.277 98.9862 202.779 100.031C202.621 100.425 202.608 100.867 202.743 101.271C202.885 101.745 203.098 102.193 203.373 102.598Z" fill="#FBBEBE"/>
<path opacity="0.1" d="M202.772 100.021C202.591 100.404 202.505 100.44 202.618 100.852C201.852 101.721 200.869 102.666 199.651 102.666C198.999 102.667 198.356 102.509 197.773 102.203C197.649 101.168 197.39 99.9847 197.39 99.9847C197.39 99.9847 203.27 98.9764 202.772 100.021Z" fill="black"/>
<path d="M203.873 98.1184C203.873 99.2968 203.428 100.427 202.637 101.26C201.845 102.093 200.771 102.562 199.652 102.562C198.532 102.562 197.458 102.093 196.667 101.26C195.875 100.427 195.43 99.2968 195.43 98.1184C195.43 98.0962 195.43 98.076 195.43 98.0539C195.434 97.4705 195.547 96.8937 195.763 96.3564C195.979 95.819 196.293 95.3317 196.688 94.9222C197.083 94.5127 197.55 94.189 198.064 93.9697C198.577 93.7504 199.127 93.6397 199.681 93.6439C200.235 93.6482 200.783 93.7672 201.294 93.9944C201.805 94.2216 202.268 94.5523 202.657 94.9678C203.046 95.3833 203.353 95.8754 203.561 96.416C203.77 96.9565 203.875 97.535 203.871 98.1184H203.873Z" fill="#FBBEBE"/>
<path opacity="0.1" d="M204.484 127.426C203.925 127.426 202.063 127.446 199.982 127.483H199.957L199.27 127.495H199.248C196.781 127.535 194.35 127.029 193.373 127.124C191.298 127.325 194.118 125.107 194.118 125.107C195.664 125.501 197.254 125.67 198.844 125.609L199.442 125.577C201.327 125.464 203.222 125.279 204.212 124.972C204.281 125.545 204.377 126.384 204.484 127.426Z" fill="black"/>
<path d="M204.484 127.313C203.925 127.313 202.063 127.336 199.982 127.37H199.957L199.27 127.382H199.248C196.781 127.424 194.35 126.916 193.373 127.013C191.298 127.215 194.118 124.996 194.118 124.996C195.664 125.392 197.254 125.561 198.844 125.499L199.442 125.466C201.327 125.355 203.222 125.168 204.212 124.861C204.281 125.432 204.377 126.271 204.484 127.313Z" fill="#5F5D7E"/>
<path opacity="0.1" d="M198.517 103.83L195.26 105.443L192.74 125.938C192.74 125.938 194.231 125.229 195.082 125.676C195.932 126.124 198.557 125.715 198.557 125.715C198.557 125.715 200.473 125.602 200.756 125.828C201.04 126.053 204.375 124.894 204.375 124.894C204.375 124.894 204.978 123.482 204.517 123.251C204.055 123.019 204.659 120.831 204.659 120.831L204.375 106.046L203.8 104.143L202.268 103.171L200.708 104.478L199.963 104.59L198.517 103.83Z" fill="black"/>
<path d="M198.516 103.607L195.26 105.22L192.735 125.717C192.735 125.717 194.225 125.007 195.076 125.455C195.926 125.902 198.551 125.493 198.551 125.493C198.551 125.493 200.467 125.38 200.75 125.604C201.034 125.828 204.369 124.672 204.369 124.672C204.369 124.672 204.973 123.261 204.511 123.029C204.049 122.797 204.653 120.609 204.653 120.609L204.369 105.825L203.794 103.921L202.262 102.949L200.702 104.256L199.957 104.369L198.516 103.607Z" fill="#E7EFFD"/>
<path opacity="0.1" d="M198.463 104.558C198.463 104.558 199.403 105.734 199.386 105.97C199.369 106.206 199.333 106.792 199.333 106.792L198.624 108.303C198.624 108.303 198.241 110.188 198.241 110.581C198.241 110.975 197.62 114.37 197.62 114.37L196.859 119.603L195.919 126.459L196.877 128.195L198.013 127.187L199.52 114.979L199.838 112.572C199.838 112.572 200.176 108.24 200.176 107.793C200.139 107.248 200.075 106.706 199.984 106.169C199.984 106.169 200.216 105.048 201.174 104.788C202.132 104.528 201.101 104.732 201.101 104.732L200.553 104.266L200.074 104.468C200.074 104.468 198.746 104.036 198.463 104.558Z" fill="black"/>
<path d="M198.357 104.445C198.357 104.445 199.296 105.62 199.279 105.856C199.262 106.092 199.225 106.677 199.225 106.677L198.516 108.189C198.516 108.189 198.133 110.075 198.133 110.466C198.133 110.857 197.513 114.255 197.513 114.255L196.769 119.481L195.829 126.337L196.787 128.073L197.921 127.065L199.428 114.858L199.748 112.45C199.748 112.45 200.085 108.119 200.085 107.671C200.049 107.126 199.985 106.584 199.894 106.046C199.894 106.046 200.124 104.927 201.082 104.665C202.04 104.402 201.011 104.61 201.011 104.61L200.461 104.142L199.982 104.344C199.982 104.344 198.641 103.923 198.357 104.445Z" fill="#7895FF"/>
<path opacity="0.1" d="M197.737 102.485C197.737 102.485 197.595 102.598 197.559 103.344C197.522 104.09 197.026 105.764 197.026 105.764C197.026 105.764 198.871 104.421 199.793 104.57L197.737 102.485Z" fill="black"/>
<path d="M197.737 102.261C197.737 102.261 197.595 102.374 197.559 103.12C197.522 103.866 197.026 105.54 197.026 105.54C197.026 105.54 198.871 104.197 199.793 104.346L197.737 102.261Z" fill="#E7EFFD"/>
<path opacity="0.1" d="M202.773 101.889L199.865 104.577C199.865 104.577 202.312 106.107 202.632 106.48C202.952 106.853 203.27 102.822 203.27 102.822L202.773 101.889Z" fill="black"/>
<path d="M202.879 101.665L199.971 104.353C199.971 104.353 202.419 105.884 202.737 106.257C203.055 106.63 203.375 102.599 203.375 102.599L202.879 101.665Z" fill="#E7EFFD"/>
<path opacity="0.1" d="M197.842 102.485C197.842 102.485 197.524 102.318 197.221 102.803C197 103.12 196.7 103.365 196.354 103.511C196.354 103.511 193.126 104.054 193.001 104.501L191.493 104.594C191.493 104.594 190.961 104.669 190.919 105.846C190.876 107.024 190.581 107.133 190.581 107.133C190.581 107.133 189.961 108.29 190.007 108.887C190.013 109.069 189.972 109.249 189.888 109.407C189.803 109.565 189.679 109.696 189.528 109.784L191.744 115.85C191.744 115.85 191.815 118.352 191.407 119.266C190.999 120.179 190.237 124.232 190.237 124.232C190.237 124.232 190.556 124.158 190.537 124.381C190.518 124.605 190.154 127.051 190.154 127.051C190.154 127.051 190.047 128.021 189.871 128.358C189.694 128.694 189.679 130.447 189.679 130.447L189.396 131.717C189.396 131.717 190.068 133.304 191.097 133.08C192.126 132.856 193.986 128.618 193.986 128.618L195.173 124.045L196.097 119.528L196.363 116.467L196.788 109.69L197.409 105.211C197.409 105.211 198.091 102.803 197.842 102.485Z" fill="black"/>
<path d="M197.737 102.261C197.737 102.261 197.417 102.094 197.116 102.58C196.894 102.896 196.593 103.141 196.246 103.288C196.246 103.288 193.018 103.83 192.894 104.278L191.388 104.37C191.388 104.37 190.855 104.445 190.802 105.621C190.748 106.796 190.464 106.909 190.464 106.909C190.464 106.909 189.844 108.067 189.89 108.663C189.897 108.845 189.856 109.025 189.771 109.184C189.687 109.342 189.562 109.473 189.411 109.561L191.635 115.634C191.635 115.634 191.706 118.137 191.298 119.05C190.89 119.964 190.127 124.017 190.127 124.017C190.127 124.017 190.447 123.942 190.43 124.166C190.413 124.39 190.047 126.833 190.047 126.833C190.047 126.833 189.941 127.805 189.763 128.14C189.585 128.475 189.572 130.231 189.572 130.231L189.288 131.502C189.288 131.502 189.962 133.088 190.991 132.863C192.02 132.637 193.882 128.402 193.882 128.402L195.07 123.829L195.991 119.312L196.246 116.239L196.672 109.462L197.292 104.983C197.292 104.983 197.984 102.58 197.737 102.261Z" fill="#65617D"/>
<path opacity="0.1" d="M186.351 116.71L185.323 117.456C185.323 117.456 183.75 117.508 182.625 117.218L182.051 116.95L181.936 116.897L182.054 116.938C182.511 117.109 183.007 117.127 183.474 116.99C184.93 116.474 184.769 113.945 184.712 113.373C184.712 113.314 184.702 113.278 184.7 113.264V113.278C184.72 113.312 184.743 113.345 184.767 113.377L184.832 113.449L185.365 114.526C185.366 114.541 185.366 114.557 185.365 114.572L186.351 116.71Z" fill="black"/>
<path d="M189.915 109.412L189.419 109.561L189.348 110.624C189.348 110.624 188.773 110.531 188.602 111.259C188.534 111.645 188.383 112.009 188.16 112.324C188.16 112.324 187.185 113.183 187.131 113.911L186.528 114.302C186.528 114.302 185.127 113.965 184.803 113.368C184.803 113.368 185.443 118.184 182.037 116.998C182.037 116.998 185.85 118.752 186.028 118.996C186.206 119.24 187.369 119.948 188.44 119.351C189.511 118.754 189.735 117.839 189.735 117.839C189.735 117.839 190.763 116.326 190.798 116.103C190.832 115.879 191.631 115.617 191.631 115.617L193.164 111.735L189.915 109.412Z" fill="#65617D"/>
<path opacity="0.1" d="M202.365 104.129L202.879 101.665C202.879 101.665 203.11 102.472 203.34 102.655L204.107 103.26C204.107 103.26 204.873 103.633 205.135 103.633C205.398 103.633 206.839 104.037 207.015 104.238C207.191 104.44 207.902 104.295 207.902 104.295C207.902 104.295 208.486 104.496 209.001 104.631C209.517 104.767 209.768 105.658 209.657 106.013C209.614 106.189 209.614 106.374 209.658 106.551C209.701 106.727 209.787 106.889 209.906 107.021C210.118 107.245 210.226 107.973 210.226 107.973C210.486 108.062 210.702 108.256 210.827 108.513C211.005 108.916 210.952 109.82 210.952 109.82L208.31 113.74C208.31 113.74 208.344 115.252 208.239 115.589C208.134 115.926 208.611 121.638 208.611 121.638L209.16 131.456C208.878 131.717 208.582 131.96 208.273 132.184C208.114 132.259 207.955 128.712 207.955 128.583C207.955 128.454 203.858 122.13 203.858 122.13C203.858 122.13 203.308 121.196 203.308 120.991C203.308 120.785 202.794 118.9 202.794 118.9L202.015 115.27L202.365 104.129Z" fill="black"/>
<path d="M211.168 109.607C211.168 109.736 211.168 109.821 211.168 109.821L208.528 113.737C208.528 113.737 208.565 115.249 208.457 115.586C208.396 115.787 208.53 117.79 208.649 119.439C208.739 120.629 208.821 121.633 208.821 121.633L209.055 125.797L209.371 131.443C209.089 131.703 208.793 131.947 208.484 132.171C208.325 132.245 208.166 128.699 208.166 128.567C208.166 128.436 204.068 122.115 204.068 122.115C204.068 122.115 203.518 121.181 203.518 120.976C203.518 120.77 203.005 118.885 203.005 118.885L202.225 115.255L202.58 104.13L202.881 101.666C202.881 101.666 203.325 102.473 203.555 102.654L204.321 103.271C204.321 103.271 205.088 103.644 205.35 103.644C205.612 103.644 207.053 104.048 207.229 104.249C207.406 104.451 208.116 104.306 208.116 104.306C208.116 104.306 208.703 104.507 209.216 104.643C209.729 104.778 209.982 105.669 209.871 106.024C209.829 106.2 209.829 106.385 209.873 106.562C209.916 106.738 210.001 106.9 210.12 107.032C210.333 107.256 210.44 107.984 210.44 107.984C210.701 108.073 210.917 108.268 211.042 108.524C211.146 108.874 211.189 109.241 211.168 109.607Z" fill="#65617D"/>
<path opacity="0.1" d="M189.489 159.342C189.577 159.342 193.302 159.491 193.231 160.126C193.16 160.761 189.489 159.342 189.489 159.342Z" fill="black"/>
<path opacity="0.1" d="M190.323 160.399C190.323 160.399 192.823 160.829 192.168 161.22C191.512 161.611 190.323 160.399 190.323 160.399Z" fill="black"/>
<path opacity="0.1" d="M199.616 158.933C199.616 158.933 203.766 159.306 203.145 159.79C202.524 160.274 201.053 160.351 200.982 160.369C200.911 160.387 199.616 158.933 199.616 158.933Z" fill="black"/>
<path opacity="0.1" d="M199.12 160.855C199.12 160.855 201.419 161.258 201.495 161.732C201.572 162.206 199.12 160.855 199.12 160.855Z" fill="black"/>
<path opacity="0.1" d="M200.396 149.617C200.396 149.617 202.503 150.139 202.632 150.494L200.396 149.617Z" fill="black"/>
<path opacity="0.1" d="M192.262 151.223C192.262 151.223 191.162 151.56 192.227 152.231C193.292 152.903 192.262 151.223 192.262 151.223Z" fill="black"/>
<path opacity="0.1" d="M197.133 133.283C197.258 133.283 199.191 132.612 199.865 132.91C200.347 133.1 200.857 133.201 201.371 133.209L197.133 133.283Z" fill="black"/>
<path opacity="0.1" d="M197.382 135.412L197.363 135.597L195.71 140.154C195.71 140.154 195.444 141.535 195.214 142.32C195.069 142.85 194.953 143.389 194.867 143.933L196.331 134.381L197.382 135.412Z" fill="black"/>
<path d="M199.957 127.37L199.269 127.382H199.248L198.844 125.501L199.442 125.466L199.957 127.37Z" fill="#3F3D56"/>
<path d="M208.323 125.091L207.883 125.475L206.408 126.751C206.408 126.751 202.419 128.991 201.319 126.864C200.35 124.989 204.873 123.65 205.963 123.357L206.195 123.299L208.323 125.091Z" fill="#FBBEBE"/>
<path opacity="0.1" d="M191.281 106.742C191.281 106.742 192.06 107.115 192.238 107.637C192.417 108.16 191.281 106.742 191.281 106.742Z" fill="black"/>
<path opacity="0.1" d="M188.869 112.341C188.869 112.341 187.735 113.796 188.194 114.357C188.654 114.918 188.869 112.341 188.869 112.341Z" fill="black"/>
<path opacity="0.1" d="M209.157 107.568C209.157 107.568 208.094 107.681 208.057 108.651L209.157 107.568Z" fill="black"/>
<path opacity="0.1" d="M199.296 122.869C199.403 122.756 201.85 118.949 202.419 119.286L199.296 122.869Z" fill="black"/>
<path opacity="0.1" d="M203.873 98.1181C203.873 98.8498 203.701 99.5702 203.373 100.215H203.342C203.074 100.155 202.934 99.828 202.731 99.6223C202.606 99.4963 202.446 99.4149 202.274 99.3896C202.102 99.3643 201.927 99.3963 201.773 99.4812C201.618 99.5789 201.491 99.7203 201.408 99.8895C201.325 100.059 201.288 100.249 201.302 100.439C201.168 99.8341 201.21 99.2049 201.078 98.606C200.946 98.0072 200.549 97.3962 200.005 97.3962C199.771 97.3962 199.497 97.4869 199.329 97.3014C199.227 97.1905 199.206 97.0151 199.137 96.88C198.754 96.2166 197.566 96.5513 197.083 96.8921C196.601 97.2328 196.039 97.7733 195.44 98.0636C195.448 96.8855 195.9 95.759 196.698 94.932C197.495 94.1049 198.571 93.6451 199.691 93.6537C200.81 93.6622 201.88 94.1385 202.666 94.9776C203.452 95.8167 203.889 96.95 203.881 98.1281L203.873 98.1181Z" fill="black"/>
<path d="M199.13 96.7566C199.206 96.8917 199.227 97.0671 199.321 97.18C199.49 97.3635 199.764 97.2688 199.997 97.2728C200.541 97.2829 200.94 97.8898 201.07 98.4827C201.2 99.0755 201.16 99.7167 201.296 100.314C201.281 100.124 201.317 99.9334 201.4 99.7643C201.483 99.5951 201.61 99.4542 201.766 99.3578C201.919 99.2733 202.094 99.2412 202.266 99.2662C202.437 99.2911 202.597 99.3718 202.724 99.4969C202.927 99.6986 203.066 100.031 203.335 100.09C203.603 100.148 203.86 99.878 203.955 99.5816C204.024 99.2753 204.075 98.9649 204.109 98.652C204.229 98.0713 204.591 97.5934 204.791 97.0389C205.028 96.3652 205.022 95.6231 204.773 94.9539C204.639 94.603 204.442 94.2885 204.308 93.9457C204.103 93.4154 204.049 92.8145 203.8 92.3084C203.6 91.8984 203.268 91.5769 202.863 91.4017C202.458 91.2265 202.007 91.2091 201.591 91.3526C201.208 91.5058 200.871 91.8002 200.48 91.9333C199.955 92.1107 199.396 91.9777 198.854 91.897C198.312 91.8163 197.704 91.8103 197.275 92.1853C196.773 92.6189 196.635 93.4315 196.164 93.9054C195.972 94.107 195.719 94.232 195.511 94.4155C195.398 94.5032 195.306 94.6173 195.242 94.749C195.179 94.8806 195.145 95.0261 195.145 95.1737C195.177 95.5608 195.528 95.9117 195.403 96.2706C195.357 96.374 195.292 96.4665 195.212 96.5429C194.817 96.9792 194.523 97.5057 194.354 98.0814C195.311 98.3919 196.331 97.2909 197.072 96.7707C197.559 96.4299 198.741 96.0952 199.13 96.7566Z" fill="#7C5C5C"/>
<path opacity="0.1" d="M208.323 125.091L207.883 125.475C207.499 124.791 205.894 123.428 205.894 123.428L205.963 123.357L206.195 123.299L208.323 125.091Z" fill="black"/>
<path d="M208.749 124.4C208.749 124.4 208.592 124.815 208.427 125.174C208.262 125.533 208.084 125.86 208.076 125.596C208.057 125.072 206.001 123.317 206.001 123.317L206.279 123.031L206.603 122.7L208.749 124.4Z" fill="#E7EFFD"/>
<path opacity="0.1" d="M208.82 121.637L209.053 125.801C208.502 124.9 206.99 122.589 206.019 122.664L208.377 119.808C208.475 119.693 208.565 119.571 208.647 119.443C208.737 120.633 208.82 121.637 208.82 121.637Z" fill="black"/>
<path opacity="0.1" d="M208.749 124.4C208.749 124.4 208.592 124.815 208.427 125.174C207.808 124.283 206.959 123.229 206.279 123.031L206.603 122.7L208.749 124.4Z" fill="black"/>
<path d="M210.523 109.299L211.161 109.822C211.161 109.822 212.226 109.842 212.331 110.773C212.436 111.705 213.414 112.136 213.414 112.136C213.414 112.136 214.14 112.903 214.14 113.258C214.14 113.612 214.689 114.246 214.689 114.302C214.689 114.359 215.222 115.496 215.151 115.701C215.08 115.907 215.726 116.802 215.523 117.139C215.363 117.441 215.221 117.753 215.097 118.073C215.097 118.073 214.264 119.753 213.839 120.069C213.414 120.386 211.463 123.057 211.463 123.057C211.463 123.057 209.369 125.594 209.369 126.379C209.369 126.379 207.331 122.795 206.124 122.888L208.482 120.033C208.482 120.033 208.89 119.565 208.91 119.287C208.929 119.008 210.044 117.718 210.576 117.661C210.576 117.661 210.664 116.897 210.435 116.877C210.205 116.857 210.009 116.272 210.009 116.272C210.009 116.272 208.448 114.33 208.431 113.098C208.413 111.866 210.523 109.299 210.523 109.299Z" fill="#65617D"/>
<path opacity="0.1" d="M211.463 111.071C211.463 111.071 209.973 112.228 210.293 112.603C210.613 112.978 211.463 111.071 211.463 111.071Z" fill="black"/>
<path opacity="0.1" d="M211.534 115.85C211.534 115.85 214.301 114.916 214.584 115.85H211.534Z" fill="black"/>
<path opacity="0.1" d="M194.404 165.44C194.404 165.44 192.913 166.469 192.168 166.317C191.652 166.249 191.128 166.34 190.66 166.579C190.148 167.17 189.501 167.613 188.781 167.868C187.574 168.297 185.89 168.128 184.932 167.793C184.48 167.634 184.443 167.428 184.662 167.176C185.702 167.394 188.03 167.828 188.656 167.513C189.347 167.127 190.011 166.691 190.643 166.206C190.643 166.206 192.175 165.983 192.38 165.983C192.532 165.983 193.71 165.47 194.375 165.176L194.404 165.44Z" fill="black"/>
<path opacity="0.1" d="M203.425 167.547C203.425 167.61 203.411 167.65 203.411 167.65C203.411 167.65 203.057 168.471 201.087 168.769C199.118 169.068 199.12 168.079 199.12 168.079L199.139 167.811C199.762 168.061 201.122 168.338 203.425 167.547Z" fill="black"/>
<path opacity="0.1" d="M192.016 110.847C192.016 110.847 192.016 115.103 191.672 115.523C191.327 115.942 192.016 110.847 192.016 110.847Z" fill="black"/>
<path opacity="0.1" d="M208.003 112.221L208.519 113.742C208.519 113.742 208.722 112.249 208.003 112.221Z" fill="black"/>
<g opacity="0.1">
<path opacity="0.1" d="M195.465 95.9034C195.595 95.5546 195.254 95.2098 195.21 94.8347C195.164 94.9401 195.144 95.0559 195.152 95.1715C195.175 95.4558 195.375 95.7199 195.426 95.978C195.441 95.9545 195.454 95.9295 195.465 95.9034Z" fill="black"/>
<path opacity="0.1" d="M201.35 99.9238C201.223 99.335 201.262 98.7139 201.132 98.1231C201.001 97.5323 200.603 96.9133 200.059 96.9133C199.825 96.9133 199.551 97.002 199.382 96.8185C199.279 96.7076 199.26 96.5322 199.191 96.3951C198.808 95.7337 197.62 96.0704 197.135 96.4092C196.411 96.9153 195.411 97.9779 194.484 97.736C194.44 97.8489 194.398 97.9638 194.363 98.0828C195.321 98.3933 196.34 97.2924 197.082 96.7721C197.566 96.4334 198.748 96.0986 199.137 96.76C199.214 96.8951 199.235 97.0706 199.329 97.1835C199.497 97.367 199.771 97.2722 200.005 97.2762C200.549 97.2863 200.948 97.8933 201.078 98.4861C201.208 99.0789 201.168 99.7201 201.304 100.317C201.294 100.184 201.31 100.05 201.35 99.9238Z" fill="black"/>
<path opacity="0.1" d="M204.017 99.2244C203.921 99.5209 203.668 99.7931 203.394 99.7326C203.12 99.6721 202.988 99.3454 202.785 99.1398C202.659 99.0145 202.499 98.9337 202.327 98.9084C202.156 98.8831 201.981 98.9146 201.827 98.9986C201.679 99.0918 201.557 99.2248 201.474 99.3839C201.392 99.5431 201.351 99.7226 201.356 99.904C201.427 99.6758 201.576 99.4834 201.773 99.3636C201.927 99.2791 202.102 99.247 202.273 99.272C202.445 99.2969 202.605 99.3776 202.731 99.5027C202.934 99.7044 203.074 100.037 203.342 100.096C203.61 100.154 203.867 99.8838 203.963 99.5874C204.015 99.4131 204.048 99.2332 204.061 99.051C204.05 99.1098 204.035 99.1678 204.017 99.2244Z" fill="black"/>
<path opacity="0.1" d="M204.852 96.6798C204.66 97.2323 204.291 97.7102 204.17 98.2929C204.147 98.4099 204.132 98.5309 204.118 98.6518C204.241 98.0711 204.599 97.5952 204.798 97.0387C204.887 96.79 204.942 96.5293 204.961 96.2644C204.935 96.4056 204.898 96.5445 204.852 96.6798Z" fill="black"/>
</g>
<path d="M179.223 110.196C179.248 110.196 179.268 110.175 179.268 110.149C179.268 110.124 179.248 110.103 179.223 110.103C179.199 110.103 179.179 110.124 179.179 110.149C179.179 110.175 179.199 110.196 179.223 110.196Z" fill="#E6E8EC"/>
<path d="M196.116 111.19H163.939C163.239 111.19 162.672 111.787 162.672 112.523V151.843C162.672 152.579 163.239 153.176 163.939 153.176H196.116C196.815 153.176 197.382 152.579 197.382 151.843V112.523C197.382 111.787 196.815 111.19 196.116 111.19Z" fill="white"/>
<path opacity="0.1" d="M196.116 111.19H163.939C163.239 111.19 162.672 111.787 162.672 112.523V151.843C162.672 152.579 163.239 153.176 163.939 153.176H196.116C196.815 153.176 197.382 152.579 197.382 151.843V112.523C197.382 111.787 196.815 111.19 196.116 111.19Z" fill="#5A5773"/>
<path d="M194.346 113.332H165.709C165.01 113.332 164.443 113.929 164.443 114.665V149.703C164.443 150.439 165.01 151.036 165.709 151.036H194.346C195.045 151.036 195.612 150.439 195.612 149.703V114.665C195.612 113.929 195.045 113.332 194.346 113.332Z" fill="white"/>
<path d="M189.206 120.894H170.133C169.494 120.894 168.977 121.438 168.977 122.11V127.445C168.977 128.117 169.494 128.661 170.133 128.661H189.206C189.844 128.661 190.361 128.117 190.361 127.445V122.11C190.361 121.438 189.844 120.894 189.206 120.894Z" fill="#7895FF"/>
<path d="M189.578 131.502H169.763V133.087H189.578V131.502Z" fill="#7895FF"/>
<path d="M193.66 134.847H166.395V136.432H193.66V134.847Z" fill="#7895FF"/>
<path d="M193.66 138.367H166.395V139.952H193.66V138.367Z" fill="#7895FF"/>
<path d="M193.66 141.888H166.395V143.473H193.66V141.888Z" fill="#7895FF"/>
<path d="M80.4626 97.311H1.26633C0.566954 97.311 0 97.9078 0 98.6439V137.964C0 138.7 0.566954 139.297 1.26633 139.297H80.4626C81.1619 139.297 81.7289 138.7 81.7289 137.964V98.6439C81.7289 97.9078 81.1619 97.311 80.4626 97.311Z" fill="white"/>
<path opacity="0.1" d="M80.4626 97.311H1.26633C0.566954 97.311 0 97.9078 0 98.6439V137.964C0 138.7 0.566954 139.297 1.26633 139.297H80.4626C81.1619 139.297 81.7289 138.7 81.7289 137.964V98.6439C81.7289 97.9078 81.1619 97.311 80.4626 97.311Z" fill="#5A5773"/>
<path d="M76.2919 99.4526H5.43503C4.73566 99.4526 4.1687 100.049 4.1687 100.786V135.823C4.1687 136.559 4.73566 137.156 5.43503 137.156H76.2919C76.9913 137.156 77.5582 136.559 77.5582 135.823V100.786C77.5582 100.049 76.9913 99.4526 76.2919 99.4526Z" fill="white"/>
<path d="M64.0424 107.016H16.0043C15.3663 107.016 14.8491 107.56 14.8491 108.232V113.567C14.8491 114.239 15.3663 114.783 16.0043 114.783H64.0424C64.6804 114.783 65.1976 114.239 65.1976 113.567V108.232C65.1976 107.56 64.6804 107.016 64.0424 107.016Z" fill="#7895FF"/>
<path d="M63.3509 117.623H16.696V119.208H63.3509V117.623Z" fill="#7895FF"/>
<path d="M72.9623 120.968H8.76465V122.553H72.9623V120.968Z" fill="#7895FF"/>
<path d="M72.9623 124.489H8.76465V126.073H72.9623V124.489Z" fill="#7895FF"/>
<path d="M72.9623 128.009H8.76465V129.594H72.9623V128.009Z" fill="#7895FF"/>
<path d="M19.9758 169.509C20.2038 168.634 20.359 167.864 20.359 167.864C20.3633 167.279 20.5097 166.705 20.7843 166.196V165.954L20.8494 164.178C20.7481 163.851 20.6199 163.534 20.4663 163.23C20.1827 162.66 20.5621 160.625 20.5621 160.625C20.5621 160.625 21.7939 157.788 21.587 155.947C21.3801 154.106 24.1963 147.915 24.1963 147.915C24.2038 147.305 24.1447 146.696 24.02 146.101C23.9974 145.976 23.991 145.85 24.0009 145.724C23.9999 145.708 23.9999 145.693 24.0009 145.677V145.691C24.0833 144.481 25.0718 142.263 25.0718 142.263L25.1082 137.948C25.1082 137.948 24.6216 135.383 25.6829 132.01C26.0565 130.832 26.3017 129.888 26.4627 129.159C26.4818 129.076 26.4991 128.997 26.5144 128.921C24.5833 128.529 23.1081 128.211 23.1081 128.211C23.1081 128.211 24.4166 123.295 25.2155 122.458C26.0144 121.621 26.7155 118.915 26.7155 118.915C26.7155 118.915 27.2405 115.427 26.6389 114.378C26.0373 113.33 26.0105 111.555 26.0105 111.555C26.0105 111.555 24.589 110.379 24.4243 109.877C24.2595 109.375 23.997 108.244 24.0181 107.659C24.0392 107.075 24.2423 106.55 24.1925 106.238C24.1426 105.925 24.6733 104.768 24.4492 104.199C24.3934 104.024 24.3675 103.841 24.3725 103.657C24.3725 103.657 24.3725 103.657 24.3725 103.641C24.3885 103.152 24.4494 102.667 24.5545 102.191C24.99 101.832 25.4928 101.575 26.0297 101.437L26.0661 101.304L26.1619 100.959C26.209 100.928 26.2576 100.9 26.3075 100.874L26.3171 100.747L26.3477 100.245L26.1638 99.0996C25.7806 97.1114 28.2941 96.9198 28.2941 96.9198C28.4559 96.6239 28.7159 96.4013 29.024 96.2947C29.5336 96.1294 29.0011 99.2609 28.7577 99.4524C28.5662 99.5956 27.9914 100.561 27.7137 101.035L27.6677 101.114C27.708 101.154 27.7452 101.198 27.7788 101.245L27.6581 101.925L27.6389 102.027C27.7971 102.251 27.923 102.497 28.0125 102.759C28.0125 102.759 27.5355 103.268 27.6064 103.86C27.627 104.322 27.562 104.783 27.4148 105.217C27.4416 105.187 27.7769 104.834 28.0949 104.935C28.4129 105.036 29.298 105.357 29.298 105.357C29.298 105.357 29.9628 105.508 29.8957 105.661C29.8287 105.814 30.3229 106.516 30.3229 106.516L32.187 104.796C32.2081 104.742 32.2272 104.689 32.2464 104.635C32.3323 104.381 32.3964 104.12 32.438 103.854C32.2414 103.798 32.0493 103.726 31.8632 103.639C31.6764 103.563 31.5095 103.441 31.3766 103.284C31.2042 103.05 31.185 102.739 31.118 102.455C30.9954 101.898 30.708 101.394 30.5069 100.86C30.1694 99.9634 30.0804 98.9845 30.2501 98.0369C30.2911 97.7465 30.396 97.4703 30.5567 97.2303C30.867 96.817 31.4054 96.6657 31.8057 96.3431C32.2061 96.0205 32.4744 95.5103 32.9341 95.2744C33.3518 95.0607 33.848 95.1091 34.3058 95.2058C35.195 95.3968 36.0427 95.7598 36.8059 96.2766C37.0626 96.452 37.3443 96.6536 37.6489 96.6073C37.9017 96.5365 38.1244 96.3781 38.2811 96.1576C38.2802 96.1482 38.2802 96.1388 38.2811 96.1294L38.3021 96.1072C38.4762 96.5598 38.5534 97.0472 38.5282 97.5348C38.5282 97.6094 38.5282 97.686 38.5129 97.7607C38.5129 97.7869 38.5129 97.8131 38.5129 97.8393C38.511 97.8614 38.511 97.8837 38.5129 97.9058C38.512 97.9392 38.5159 97.9725 38.5244 98.0046C38.558 98.1041 38.6123 98.1943 38.6834 98.2688C38.7354 98.3362 38.7816 98.4084 38.8213 98.4846C38.8213 98.4583 38.8079 98.4321 38.8002 98.4059C38.9087 98.587 38.9659 98.7968 38.965 99.0108C38.9694 99.1669 38.915 99.3184 38.8137 99.4323C38.7211 99.5227 38.6196 99.6024 38.511 99.6702C38.608 100.402 38.4896 101.148 38.1718 101.808C37.8539 102.467 37.3519 103.008 36.7331 103.358C36.7101 103.411 36.6871 103.465 36.6661 103.52C36.3809 104.16 36.2431 104.863 36.2638 105.57C36.2638 105.621 36.2638 105.671 36.2791 105.722C36.2944 105.772 36.3232 105.776 36.3423 105.804C36.3423 105.804 39.3118 105.955 40.0359 105.316C40.7601 104.677 41.741 107.016 41.741 107.016C41.741 107.016 42.7985 107.276 43.0188 107.069C43.2391 106.861 44.4824 107.097 44.4824 107.097C45.0093 106.639 45.6822 106.411 46.3637 106.458C46.7921 106.142 47.2611 105.892 47.7565 105.715L47.791 105.703C48.0077 105.629 48.2377 105.608 48.4634 105.641C48.4634 105.641 49.9711 104.431 50.4213 103.764C50.8715 103.096 52.9847 100.65 52.9847 100.638L52.9981 100.517L53.0345 100.15C53.0938 100.163 53.154 100.171 53.2145 100.174L53.2605 100.047C53.39 99.6929 53.547 99.3503 53.7299 99.0229C53.7299 99.0229 53.7471 98.5571 53.6226 98.4362C53.4981 98.3152 53.7433 96.6214 53.7433 96.6214C53.7433 96.6214 55.1782 93.4354 56.2683 95.9015C56.2683 95.9015 58.4408 97.557 56.502 99.3032C56.502 99.3032 55.7357 99.6541 55.6265 99.9505C55.5499 100.152 55.2759 100.68 55.092 101.037L55.0096 101.197L55.0307 101.217L54.9924 101.519L54.9771 101.638C55.32 101.862 55.5518 102.08 55.4886 102.243C55.3745 102.507 55.2927 102.786 55.2453 103.072C55.2453 103.072 52.5364 106.359 52.1494 107.809C52.1494 107.809 45.0495 111.87 42.7621 112.087L43.0782 114.273C43.1157 114.863 43.1246 115.455 43.105 116.046C43.0571 116.509 43.2851 118.629 43.2851 118.629C43.2851 118.629 43.5667 121.746 43.8866 122.194C44.2066 122.641 44.0782 124.501 44.0782 124.501C44.1262 125.394 44.2467 126.282 44.4384 127.154C44.7296 128.346 44.4384 129.794 44.4384 129.794C44.4384 129.794 45.494 132.631 42.7927 130.626C42.7927 130.626 41.4364 130.483 39.8731 130.364C39.8731 130.417 39.8731 130.473 39.8731 130.528C39.8731 130.741 39.8635 130.971 39.8578 131.213C39.8194 132.812 39.7486 135.014 39.6183 136.678C39.3884 139.62 38.3232 145.415 38.3232 145.415L38.2159 148.343C38.2615 148.62 38.2782 148.902 38.2657 149.184C38.2477 150.217 37.9507 151.223 37.4094 152.085L37.1239 154.031C37.1239 154.031 36.5779 155.298 36.5396 156.066C36.5386 156.129 36.5437 156.192 36.555 156.253C36.569 156.353 36.5735 156.453 36.5684 156.554C36.5684 157.441 35.9783 159.542 35.9783 159.542C35.9783 159.542 35.8691 161.682 35.5607 161.792C35.2963 161.889 35.8634 163.041 36.0319 163.371C36.0382 163.352 36.0427 163.331 36.0454 163.311L36.0818 163.375C36.1381 163.551 36.1635 163.736 36.1565 163.922C36.1679 164.069 36.1396 164.216 36.0748 164.346C36.0101 164.477 35.9115 164.586 35.7906 164.66C35.1986 165.009 34.8767 165.305 35.3633 165.45C35.543 165.487 35.7208 165.534 35.8959 165.589L35.9247 165.519C35.9934 165.55 36.0499 165.605 36.0847 165.675C36.1196 165.745 36.1307 165.825 36.1162 165.902C36.1029 166.156 36.0313 166.402 35.9074 166.62C35.6715 167.17 35.3758 167.69 35.0262 168.168L34.7924 168.132C34.8241 168.227 34.8665 168.317 34.9189 168.4C35.0027 168.539 35.117 168.655 35.2522 168.737C35.3765 168.822 35.5161 168.878 35.6622 168.902C35.8273 168.915 35.9879 168.964 36.1338 169.047C36.2797 169.129 36.4075 169.243 36.509 169.38C36.7963 169.806 36.9669 170.376 36.3481 170.846L34.143 171.548C34.143 171.548 30.3804 171.909 30.6103 171.034C30.8402 170.159 30.9935 169.388 30.9935 169.388C30.9975 168.847 31.1208 168.314 31.3536 167.832C31.3962 167.753 31.4435 167.678 31.4954 167.606L31.3632 167.586C31.3632 167.586 31.1448 165.62 30.7846 165.239C30.7042 165.148 30.6869 165.081 30.708 165.037C30.6754 164.93 30.7712 164.872 30.8996 164.835C30.8996 164.859 30.9168 164.886 30.9245 164.912C31.0447 164.891 31.1666 164.882 31.2885 164.886C31.2885 164.886 31.4475 163.867 31.0663 163.474C31.0354 163.431 31.0137 163.381 31.0025 163.328C30.9913 163.275 30.9908 163.221 31.0011 163.168C31.0019 163.027 31.0206 162.888 31.0567 162.752C31.0604 162.761 31.0649 162.769 31.0701 162.776C31.3038 161.857 32.028 160.409 32.028 160.409C32.028 160.409 32.0912 159.48 31.8613 159.096C31.6314 158.713 32.0778 154.043 32.0778 154.043C32.0778 154.043 32.0682 151.777 32.3805 150.734C32.6928 149.692 32.1295 148.426 32.1295 148.426C32.1295 148.426 32.1295 148.401 32.1391 148.359C32.1397 148.353 32.1397 148.347 32.1391 148.341C32.1391 148.341 32.1583 148.202 32.1889 147.986V148.008C32.2732 147.403 32.4284 146.332 32.5318 145.832C32.6793 145.125 32.6525 141.707 32.6525 141.707L32.1563 140.235L31.0893 142.707L29.9398 146.014C29.9398 146.014 29.4015 146.699 29.3651 147.425C29.3651 147.462 29.3651 147.496 29.3651 147.532C29.3698 147.607 29.3698 147.682 29.3651 147.756C29.3666 148.18 29.2405 148.593 29.0049 148.936C29.0049 148.936 28.6735 150.506 28.2386 150.892C27.8037 151.277 27.7692 152.053 27.7692 152.053C27.7692 152.053 27.1677 154.328 26.909 154.721C26.6925 155.052 26.6466 155.985 26.6389 156.271C26.6389 156.324 26.6389 156.354 26.6389 156.354C26.6389 156.354 26.5374 157.173 26.5144 157.862C26.5144 157.947 26.5144 158.03 26.5144 158.106C26.5134 158.101 26.5134 158.096 26.5144 158.09C26.5071 158.278 26.5212 158.465 26.5565 158.649C26.5565 158.649 26.5565 158.671 26.5565 158.683V158.566C26.6475 159.038 26.6829 159.521 26.6619 160.002C26.6447 160.827 26.4895 161.799 25.9933 162.353C25.135 163.313 24.6235 163.16 24.6235 163.16C24.6235 163.16 24.9741 164.416 25.4511 164.684C25.4695 164.694 25.4868 164.706 25.5028 164.72C25.5028 164.696 25.5028 164.672 25.5163 164.65C25.5669 164.714 25.6044 164.789 25.6261 164.87C25.6479 164.95 25.6535 165.035 25.6427 165.118C25.658 165.664 25.2979 166.529 24.9722 166.932C24.8536 167.048 24.7093 167.129 24.5526 167.17C24.5765 167.189 24.6014 167.207 24.6273 167.223C24.6805 167.256 24.7355 167.285 24.7921 167.311C24.8694 167.351 24.9521 167.378 25.0373 167.39C25.2026 167.402 25.3637 167.45 25.5097 167.533C25.6557 167.615 25.7834 167.73 25.8841 167.868C26.1715 168.291 26.342 168.862 25.7232 169.332L23.5181 170.034C23.5181 170.034 19.744 170.384 19.9758 169.509Z" fill="url(#paint2_linear)"/>
<path d="M34.2198 171.551L36.3558 170.847C36.9555 170.376 36.7907 169.805 36.5129 169.379C36.417 169.243 36.2943 169.13 36.1531 169.048C36.0119 168.967 35.8556 168.918 35.6949 168.906C35.5521 168.881 35.4162 168.824 35.2964 168.738C35.166 168.655 35.0563 168.54 34.9765 168.403C34.8325 168.14 34.7603 167.84 34.7677 167.536C34.7677 167.536 32.4802 166.73 31.8212 167.417C31.7047 167.542 31.606 167.684 31.5281 167.839C31.302 168.324 31.1816 168.856 31.1756 169.396C31.1756 169.396 31.03 170.164 30.8058 171.041C30.5817 171.918 34.2198 171.551 34.2198 171.551Z" fill="#2D293D"/>
<path d="M23.949 170.042L26.0851 169.338C26.6847 168.866 26.52 168.295 26.2422 167.872C26.1463 167.735 26.0233 167.621 25.8818 167.539C25.7402 167.457 25.5835 167.408 25.4222 167.396C25.3396 167.385 25.2593 167.359 25.1847 167.319C25.13 167.293 25.0769 167.262 25.0257 167.229C24.4509 166.864 24.495 166.019 24.495 166.019C24.495 166.019 22.2076 165.212 21.5485 165.9C21.4601 165.993 21.3818 166.095 21.3148 166.206C21.0471 166.719 20.9048 167.293 20.901 167.878C20.901 167.878 20.7535 168.648 20.5313 169.523C20.309 170.398 23.949 170.042 23.949 170.042Z" fill="#2D293D"/>
<path opacity="0.1" d="M31.819 167.419C31.7032 167.544 31.6051 167.686 31.5278 167.84L34.9762 168.403C34.8323 168.139 34.76 167.839 34.7674 167.536C34.7674 167.536 32.4857 166.731 31.819 167.419Z" fill="black"/>
<path opacity="0.1" d="M21.3149 166.214L21.29 166.898C21.7958 167.856 24.4108 167.757 25.1848 167.319C25.1301 167.293 25.077 167.262 25.0258 167.229C24.4511 166.864 24.4951 166.019 24.4951 166.019C24.4951 166.019 22.2077 165.212 21.5487 165.9C21.4598 165.995 21.3814 166.101 21.3149 166.214Z" fill="black"/>
<path d="M21.0103 163.254C21.1625 163.558 21.2906 163.875 21.3934 164.201L21.2995 166.649C21.8513 167.698 24.928 167.48 25.361 166.94C25.7939 166.399 26.2882 164.958 25.8265 164.691C25.3648 164.425 25.0257 163.167 25.0257 163.167C25.0257 163.167 25.5219 163.312 26.3553 162.36C27.1886 161.409 27.0315 159.189 26.9013 158.656C26.771 158.124 26.9875 156.362 26.9875 156.362C26.9875 156.362 27.0028 155.119 27.2538 154.726C27.5047 154.333 28.089 152.059 28.089 152.059C28.089 152.059 28.1159 151.282 28.5431 150.897C28.9703 150.512 29.2941 148.939 29.2941 148.939C29.5503 148.554 29.6716 148.087 29.637 147.618C29.5776 146.84 30.1964 146.025 30.1964 146.025L31.321 142.718L32.3555 140.244L32.8325 141.722C32.8325 141.722 32.8555 145.14 32.7118 145.848C32.5681 146.556 32.3286 148.441 32.3286 148.441C32.3286 148.441 32.8727 149.705 32.57 150.75C32.2673 151.794 32.2712 154.059 32.2712 154.059C32.2712 154.059 31.8344 158.731 32.0566 159.112C32.2788 159.493 32.2156 160.423 32.2156 160.423C32.2156 160.423 30.9091 163.103 31.2769 163.492C31.6447 163.881 31.4915 164.903 31.4915 164.903C31.4915 164.903 30.6677 164.869 31.0068 165.256C31.3459 165.643 31.5279 167.593 31.5279 167.593L35.074 168.172C35.4137 167.691 35.7004 167.171 35.9284 166.621C36.4418 165.494 35.8786 165.595 35.4092 165.452C34.9398 165.309 35.2502 165.01 35.823 164.661C36.3958 164.312 36.1027 163.461 36.1027 163.461C36.1027 163.461 35.3038 161.907 35.6046 161.796C35.9054 161.685 36.0108 159.546 36.0108 159.546C36.0108 159.546 36.6928 157.025 36.5702 156.337C36.4476 155.65 37.1277 154.031 37.1277 154.031L37.4035 152.087C38.0752 151.005 38.3534 149.704 38.1871 148.423L38.2982 145.414C38.2982 145.414 39.3404 139.629 39.5741 136.677C39.7197 134.794 39.7925 132.219 39.8251 130.612C39.8442 129.708 39.8519 129.112 39.8519 129.112L27.1752 127.2C27.1311 127.868 27.0292 128.531 26.8706 129.18C26.7154 129.912 26.476 130.856 26.1043 132.033C25.0659 135.407 25.5296 137.972 25.5296 137.972L25.4893 142.287C25.4893 142.287 24.2632 145.126 24.4644 146.128C24.5846 146.725 24.6411 147.333 24.633 147.943C24.633 147.943 21.9049 154.129 22.1042 155.962C22.3034 157.795 21.106 160.642 21.106 160.642C21.106 160.642 20.7363 162.683 21.0103 163.254Z" fill="#575988"/>
<path opacity="0.05" d="M28.8785 147.393L25.0239 146.687C25.0239 146.687 27.1332 149.139 28.8785 147.393Z" fill="black"/>
<path opacity="0.1" d="M25.7289 142.734C25.7289 142.734 25.5373 144.17 26.363 144.75C26.3554 144.746 24.8707 144.438 25.7289 142.734Z" fill="black"/>
<path opacity="0.1" d="M26.135 138.152C26.135 138.152 29.2711 141.09 30.457 140.906C31.6429 140.723 26.135 138.152 26.135 138.152Z" fill="black"/>
<path opacity="0.1" d="M33.6353 148.905C33.6353 148.905 36.074 149.594 36.1104 150.635C36.1468 151.675 33.6353 148.905 33.6353 148.905Z" fill="black"/>
<path opacity="0.05" d="M32.618 161.811C32.618 161.811 36.0664 162.633 35.0664 163.059C34.0664 163.484 32.4284 163.791 32.4284 163.791C32.4284 163.791 31.3057 163.811 32.618 161.811Z" fill="black"/>
<g opacity="0.05">
<path opacity="0.05" d="M35.7427 163.827C35.832 163.772 35.9086 163.698 35.9669 163.609C36.0253 163.519 36.0639 163.417 36.0799 163.31L36.1125 163.377C36.1125 163.377 36.4075 164.226 35.8328 164.587C35.7676 164.625 35.7063 164.665 35.6412 164.704C35.5397 164.679 35.4285 164.659 35.3232 164.627C34.8557 164.476 35.168 164.177 35.7427 163.827Z" fill="black"/>
<path opacity="0.05" d="M31.2711 163.399C31.1791 163.303 31.1925 163.065 31.2711 162.76C31.403 163.041 31.46 163.355 31.4358 163.668C31.4011 163.566 31.3447 163.474 31.2711 163.399Z" fill="black"/>
<path opacity="0.05" d="M32.3709 147.993C32.4852 148.366 32.5497 148.754 32.5624 149.145C32.5061 148.873 32.4252 148.606 32.321 148.35C32.321 148.35 32.3421 148.211 32.3709 147.993Z" fill="black"/>
<path opacity="0.05" d="M24.4723 146.044C24.4526 145.932 24.4455 145.817 24.451 145.703C24.4878 145.937 24.511 146.153 24.5245 146.343C24.509 146.246 24.4916 146.147 24.4723 146.044Z" fill="black"/>
<path opacity="0.05" d="M32.0509 159.021C31.9934 158.796 31.9726 158.562 31.9896 158.329C32.0884 158.609 32.1352 158.906 32.1276 159.204C32.109 159.14 32.0833 159.079 32.0509 159.021Z" fill="black"/>
<path opacity="0.05" d="M31.1083 164.834C31.2687 165.464 31.3808 166.107 31.4435 166.756L34.9896 167.335C35.3307 166.854 35.618 166.334 35.846 165.784C35.892 165.685 35.9264 165.596 35.9571 165.516C36.1659 165.627 36.2425 165.865 35.936 166.534C35.7078 167.083 35.4212 167.602 35.0816 168.083L31.5278 167.508C31.5278 167.508 31.3362 165.544 30.9933 165.159C30.8343 164.967 30.9531 164.881 31.1083 164.834Z" fill="black"/>
<path opacity="0.05" d="M36.0184 159.461C36.0184 159.461 35.9111 161.6 35.6122 161.711C35.4762 161.35 35.3881 161.012 35.5222 160.961C35.821 160.848 35.9302 158.711 35.9302 158.711C35.9302 158.711 36.6123 156.192 36.4896 155.503C36.367 154.813 37.0452 153.198 37.0452 153.198L37.323 151.252C37.9947 150.17 38.2729 148.869 38.1066 147.588L38.2158 144.58C38.2158 144.58 39.2541 138.784 39.4802 135.842C39.6239 133.959 39.6967 131.384 39.7311 129.777C39.7311 129.487 39.7426 129.229 39.7465 129.011L39.848 129.027C39.848 129.027 39.848 129.632 39.8212 130.525C39.7886 132.138 39.7158 134.709 39.5702 136.593C39.3442 139.532 38.3077 145.33 38.3077 145.33L38.1966 148.336C38.363 149.617 38.0855 150.917 37.415 152L37.1353 153.946C37.1353 153.946 36.4552 155.559 36.5778 156.253C36.7004 156.946 36.0184 159.461 36.0184 159.461Z" fill="black"/>
<path opacity="0.05" d="M25.2729 166.108C25.5777 165.678 25.7884 165.183 25.8898 164.658C26.2404 165.017 25.7749 166.342 25.363 166.856C24.9511 167.37 21.8533 167.614 21.3015 166.568L21.3226 165.977C22.0889 166.84 24.8629 166.62 25.2729 166.108Z" fill="black"/>
<path opacity="0.05" d="M20.9221 162.416C21.0743 162.72 21.2025 163.037 21.3053 163.363L21.288 163.797C21.2077 163.581 21.1169 163.37 21.016 163.164C20.9316 162.916 20.8977 162.653 20.9164 162.391L20.9221 162.416Z" fill="black"/>
<path opacity="0.05" d="M25.2058 163.085C25.1021 162.842 25.0138 162.592 24.9414 162.336C24.9414 162.336 25.4376 162.48 26.269 161.52C26.8744 160.82 26.9568 159.459 26.907 158.564C27.0373 159.098 27.1924 161.308 26.361 162.268C25.8131 162.897 25.4127 163.052 25.2058 163.085Z" fill="black"/>
<path opacity="0.05" d="M26.9894 156.269C26.915 156.879 26.8727 157.492 26.863 158.106C26.8516 158.009 26.8349 157.912 26.8132 157.816C26.6848 157.282 26.8975 155.521 26.8975 155.521C26.8975 155.521 26.9147 154.279 27.1637 153.886C27.4128 153.493 27.999 151.218 27.999 151.218C27.999 151.218 28.0278 150.444 28.455 150.057C28.8822 149.669 29.206 148.099 29.206 148.099C29.4614 147.713 29.5825 147.247 29.5489 146.778C29.4895 146 30.1083 145.185 30.1083 145.185L31.2329 141.878L32.2674 139.404L32.7444 140.884C32.7444 140.884 32.7444 141.065 32.7444 141.356L32.3612 140.146L31.3267 142.618L30.2022 145.927C30.2022 145.927 29.5834 146.734 29.6428 147.52C29.6773 147.989 29.5561 148.456 29.2998 148.841C29.2998 148.841 28.9761 150.412 28.5489 150.797C28.1216 151.182 28.0948 151.958 28.0948 151.958C28.0948 151.958 27.5086 154.233 27.2595 154.628C27.0105 155.023 26.9894 156.269 26.9894 156.269Z" fill="black"/>
</g>
<path d="M26.6006 99.12L26.7807 100.261L26.75 100.765L26.727 101.136L27.9512 101.32L28.0987 101.058C28.3708 100.584 28.934 99.6181 29.1122 99.4729C29.3459 99.2813 29.867 96.1498 29.3727 96.3152C29.0713 96.4244 28.8189 96.6471 28.6639 96.9403C28.6639 96.9403 26.2385 97.1338 26.6006 99.12Z" fill="#FFCDD3"/>
<path opacity="0.1" d="M26.7271 101.137L27.9512 101.32L28.0987 101.058C27.9408 100.855 27.7213 100.715 27.4772 100.662C27.233 100.609 26.9789 100.647 26.7577 100.768L26.7271 101.137Z" fill="black"/>
<path d="M26.3936 101.738L28.0009 102.199L28.043 101.945L28.1599 101.266C28.0757 101.138 27.9684 101.03 27.8442 100.946C27.72 100.863 27.5814 100.806 27.4363 100.779C27.2911 100.753 27.1424 100.756 26.9986 100.79C26.8548 100.824 26.7189 100.888 26.5985 100.977L26.5066 101.322L26.3936 101.738Z" fill="#DCE6F2"/>
<path d="M52.7432 100.31L54.4367 101.358C54.4367 101.358 54.5076 101.215 54.6072 101.02C54.7854 100.663 55.0498 100.126 55.1245 99.9328C55.2375 99.6364 55.9732 99.2835 55.9732 99.2835C57.8525 97.5353 55.7509 95.8838 55.7509 95.8838C54.6973 93.4177 53.3064 96.6057 53.3064 96.6057C53.3064 96.6057 53.0669 98.3055 53.1876 98.4205C53.3083 98.5354 53.2911 99.0072 53.2911 99.0072C53.1125 99.3349 52.96 99.6775 52.8351 100.032C52.7757 100.199 52.7432 100.31 52.7432 100.31Z" fill="#FFCDD3"/>
<path opacity="0.1" d="M52.7432 100.309L54.4367 101.358C54.4367 101.358 54.5076 101.215 54.6072 101.019C54.3697 100.795 53.5305 100.011 53.2451 100.043C53.1088 100.058 52.9714 100.058 52.8351 100.043C52.7757 100.198 52.7432 100.309 52.7432 100.309Z" fill="black"/>
<path d="M52.5459 100.847L54.4617 101.934L54.5153 101.495L54.5536 101.192C54.5536 101.192 53.4655 100.132 53.1321 100.156C52.9621 100.174 52.7905 100.166 52.6225 100.134L52.588 100.501L52.5459 100.847Z" fill="#DCE6F2"/>
<path d="M31.0393 106.83C31.0393 106.83 39.4821 108.181 37.9169 107.576C36.8269 107.153 36.415 106.397 36.3537 105.574C36.3327 104.868 36.4637 104.166 36.7368 103.521C36.9586 102.967 37.2327 102.437 37.5549 101.94C37.5549 101.94 31.2098 97.9256 32.3823 101.39C32.5634 101.914 32.6675 102.464 32.6907 103.021C32.7091 103.574 32.6325 104.126 32.4646 104.65C32.1893 105.501 31.6961 106.256 31.0393 106.83Z" fill="#FFCDD3"/>
<path opacity="0.1" d="M32.3901 101.39C32.5713 101.914 32.6753 102.464 32.6985 103.021C33.2886 103.584 33.9591 103.576 34.8193 103.61C35.4803 103.638 36.2044 103.836 36.7351 103.521C36.9569 102.967 37.2309 102.437 37.5531 101.94C37.5531 101.94 31.2177 97.9256 32.3901 101.39Z" fill="black"/>
<path d="M35.0605 103.854C36.9978 103.854 38.5683 102.201 38.5683 100.162C38.5683 98.1232 36.9978 96.4702 35.0605 96.4702C33.1232 96.4702 31.5527 98.1232 31.5527 100.162C31.5527 102.201 33.1232 103.854 35.0605 103.854Z" fill="#FFCDD3"/>
<path opacity="0.1" d="M31.0393 106.831C31.0393 106.831 39.4821 108.182 37.9169 107.577C36.8269 107.153 36.415 106.397 36.3537 105.575C35.9494 105.076 35.1142 104.695 34.5758 104.488C34.0857 104.293 33.5506 104.262 33.0432 104.399C32.8408 104.453 32.6471 104.538 32.4685 104.651C32.1921 105.502 31.6975 106.257 31.0393 106.831Z" fill="black"/>
<path opacity="0.1" d="M26.3936 101.737L28.0009 102.199L28.043 101.945C27.8793 101.688 27.6444 101.49 27.3701 101.379C27.0959 101.267 26.7958 101.247 26.5104 101.322L26.3936 101.737Z" fill="black"/>
<path opacity="0.1" d="M52.5459 100.848L54.4617 101.935L54.5153 101.495C53.8943 101.117 53.2476 100.788 52.5804 100.511L52.5459 100.848Z" fill="black"/>
<path opacity="0.1" d="M26.863 129.18C30.1199 129.86 34.7752 130.759 35.5243 130.551C36.1469 130.38 38.1106 130.481 39.8175 130.612C39.8367 129.708 39.8443 129.112 39.8443 129.112L27.1676 127.2C27.1236 127.868 27.0216 128.531 26.863 129.18Z" fill="black"/>
<path d="M23.6196 128.237C23.6196 128.237 34.3595 130.628 35.5338 130.304C36.7082 129.979 42.6509 130.622 42.6509 130.622C45.2622 132.623 44.2449 129.787 44.2449 129.787C44.2449 129.787 44.5342 128.34 44.2449 127.148C44.0596 126.275 43.9436 125.387 43.8981 124.494C43.8981 124.494 44.0265 122.635 43.718 122.19C43.4096 121.744 43.1433 118.624 43.1433 118.624C43.1433 118.624 42.9268 116.505 42.9728 116.041C43.0188 115.578 42.9498 114.269 42.9498 114.269L42.6452 112.083C44.8656 111.863 51.7413 107.794 51.7413 107.794C52.1245 106.35 54.7472 103.039 54.7472 103.039C54.7942 102.754 54.874 102.476 54.9847 102.211C55.1763 101.723 52.5651 100.624 52.5651 100.624C52.5651 100.624 50.4941 103.086 50.065 103.751C49.6359 104.417 48.1665 105.631 48.1665 105.631C47.9477 105.599 47.7248 105.62 47.5151 105.693H47.4806C47.0018 105.872 46.5501 106.122 46.1396 106.437C45.4759 106.394 44.8221 106.623 44.3158 107.076C44.3158 107.076 43.1146 106.842 42.9019 107.05C42.6893 107.258 41.6643 107 41.6643 107C41.6643 107 40.7064 104.665 40.0148 105.304C39.3232 105.943 36.4381 105.796 36.4381 105.796C36.076 105.243 35.1564 104.822 34.5817 104.6C34.0918 104.405 33.5564 104.374 33.0491 104.511C32.8289 104.568 32.6197 104.665 32.4303 104.796L30.6218 106.522C30.6218 106.522 30.1448 105.82 30.2099 105.667C30.275 105.514 29.6352 105.364 29.6352 105.364C29.6352 105.364 28.7903 105.05 28.4704 104.945C28.1504 104.84 27.8382 105.195 27.8113 105.227C27.9576 104.792 28.0227 104.331 28.0029 103.87C27.9359 103.277 28.3957 102.767 28.3957 102.767C27.4627 100.059 25.0545 102.199 25.0545 102.199C25.0545 102.199 24.7346 103.644 24.9511 104.215C25.1676 104.786 24.6522 105.941 24.6982 106.254C24.7442 106.566 24.5507 107.086 24.5296 107.675C24.5085 108.264 24.7614 109.393 24.9128 109.893C25.0641 110.393 26.4454 111.571 26.4454 111.571C26.4454 111.571 26.4703 113.341 27.0508 114.394C27.6313 115.447 27.1217 118.931 27.1217 118.931C27.1217 118.931 26.432 121.635 25.6638 122.474C24.8955 123.313 23.6196 128.237 23.6196 128.237Z" fill="#656691"/>
<path opacity="0.1" d="M40.126 108.473C40.126 108.473 40.4881 107.464 40.785 107.382C41.0827 107.28 41.3733 107.157 41.6548 107.013L41.4786 106.624C41.4786 106.624 40.3597 106.9 40.172 107.228C39.9843 107.557 40.126 108.473 40.126 108.473Z" fill="black"/>
<path opacity="0.1" d="M46.1299 106.45C46.1778 106.762 48.789 107.147 48.789 107.147L47.515 105.693H47.4824C46.999 105.875 46.5433 106.129 46.1299 106.45Z" fill="black"/>
<path d="M53.8716 102.747C54.0018 102.747 54.1073 102.636 54.1073 102.499C54.1073 102.362 54.0018 102.251 53.8716 102.251C53.7415 102.251 53.636 102.362 53.636 102.499C53.636 102.636 53.7415 102.747 53.8716 102.747Z" fill="#575988"/>
<path d="M53.5516 103.231C53.6817 103.231 53.7872 103.12 53.7872 102.983C53.7872 102.846 53.6817 102.735 53.5516 102.735C53.4214 102.735 53.3159 102.846 53.3159 102.983C53.3159 103.12 53.4214 103.231 53.5516 103.231Z" fill="#575988"/>
<path d="M53.2393 103.677C53.3694 103.677 53.4749 103.566 53.4749 103.429C53.4749 103.292 53.3694 103.181 53.2393 103.181C53.1092 103.181 53.0037 103.292 53.0037 103.429C53.0037 103.566 53.1092 103.677 53.2393 103.677Z" fill="#575988"/>
<path d="M52.9139 104.161C53.044 104.161 53.1495 104.05 53.1495 103.913C53.1495 103.776 53.044 103.665 52.9139 103.665C52.7837 103.665 52.6782 103.776 52.6782 103.913C52.6782 104.05 52.7837 104.161 52.9139 104.161Z" fill="#575988"/>
<path d="M25.1445 102.964C25.2503 102.964 25.336 102.873 25.336 102.762C25.336 102.651 25.2503 102.56 25.1445 102.56C25.0387 102.56 24.9529 102.651 24.9529 102.762C24.9529 102.873 25.0387 102.964 25.1445 102.964Z" fill="#575988"/>
<path d="M25.0986 103.418C25.2044 103.418 25.2901 103.328 25.2901 103.217C25.2901 103.105 25.2044 103.015 25.0986 103.015C24.9928 103.015 24.907 103.105 24.907 103.217C24.907 103.328 24.9928 103.418 25.0986 103.418Z" fill="#575988"/>
<path d="M25.0546 103.874C25.1604 103.874 25.2462 103.784 25.2462 103.672C25.2462 103.561 25.1604 103.471 25.0546 103.471C24.9488 103.471 24.863 103.561 24.863 103.672C24.863 103.784 24.9488 103.874 25.0546 103.874Z" fill="#575988"/>
<path opacity="0.1" d="M39.8041 116.874C39.8328 116.84 32.8689 125.398 27.8994 120.088C27.8994 120.088 36.0031 121.58 39.8041 116.874Z" fill="black"/>
<path opacity="0.1" d="M43.4516 121.619C43.4516 121.619 39.4726 121.573 39.0128 122.759L38.9668 124.011C39.0776 124.081 39.2035 124.121 39.3328 124.126C39.4622 124.131 39.5906 124.102 39.7063 124.041C40.1163 123.829 42.5646 122.642 43.3903 123.295L43.4516 121.619Z" fill="black"/>
<path d="M43.3771 121.614C43.3771 121.614 39.5743 121.57 39.1337 122.701L39.0896 123.895C39.1954 123.963 39.3159 124.001 39.4396 124.006C39.5633 124.011 39.6861 123.982 39.7965 123.923C40.1797 123.722 42.5303 122.59 43.3196 123.212L43.3771 121.614Z" fill="#656691"/>
<path opacity="0.1" d="M41.6144 112.448C41.1716 113.42 40.6205 114.333 39.9726 115.168C39.2647 116.092 38.4183 116.887 37.4668 117.523C37.4668 117.523 41.5263 113.013 41.6144 112.448Z" fill="black"/>
<path opacity="0.1" d="M43.0915 107.641C43.0915 107.641 42.3252 110.628 40.5723 111.581L43.0915 107.641Z" fill="black"/>
<path opacity="0.1" d="M44.0975 107.986C44.1166 107.932 44.5994 110.394 41.7583 111.63C41.7583 111.63 42.9595 111.253 44.0975 107.986Z" fill="black"/>
<path opacity="0.1" d="M26.8189 105.264C26.8629 105.264 25.407 106.162 25.0046 106.587C25.0142 106.587 25.9817 105.168 26.8189 105.264Z" fill="black"/>
<path d="M35.8864 103.545C35.8504 103.741 35.7458 103.915 35.5932 104.033C35.4884 104.082 35.3741 104.103 35.2599 104.096C34.189 104.124 33.074 104.128 32.1027 103.654C31.9209 103.578 31.7597 103.456 31.6333 103.299C31.4647 103.066 31.4418 102.757 31.3824 102.471C31.2636 101.914 30.9858 101.412 30.7923 100.878C30.4665 99.978 30.3823 99.0013 30.549 98.0547C30.5874 97.7653 30.689 97.4892 30.8459 97.2481C31.1448 96.8347 31.6678 96.6835 32.0548 96.3588C32.4418 96.0342 32.7023 95.526 33.1506 95.2881C33.5529 95.0744 34.0338 95.1207 34.4763 95.2195C35.3451 95.4112 36.1709 95.776 36.9094 96.2943C37.1565 96.4697 37.4286 96.6694 37.7236 96.623C37.9765 96.5491 38.1972 96.3852 38.3481 96.1592C38.5378 96.672 38.6075 97.2253 38.5512 97.7724C38.5378 97.8524 38.5378 97.9343 38.5512 98.0143C38.5839 98.1128 38.6362 98.2029 38.7045 98.2785C38.9554 98.6112 39.1029 99.1274 38.8309 99.442C38.7121 99.5791 38.534 99.6436 38.419 99.7908C38.2121 100.041 38.2638 100.416 38.2562 100.749C38.2631 100.864 38.232 100.979 38.168 101.073C38.1086 101.126 38.0373 101.162 37.9608 101.178C37.8844 101.194 37.8054 101.189 37.7312 101.164C37.5835 101.111 37.4273 101.089 37.2715 101.099C37.1052 101.15 36.9601 101.258 36.8596 101.406C36.3404 102.039 36.1258 102.759 35.8864 103.545Z" fill="#2D293D"/>
<g opacity="0.1">
<path opacity="0.1" d="M31.5279 103.011C31.6537 103.169 31.815 103.292 31.9973 103.368C32.9686 103.841 34.0836 103.835 35.1545 103.809C35.269 103.817 35.3834 103.795 35.4878 103.745C35.6407 103.628 35.7455 103.454 35.781 103.259C36.0166 102.47 36.235 101.752 36.7542 101.111C36.8544 100.962 36.9996 100.854 37.1661 100.803C37.3218 100.793 37.4779 100.815 37.6258 100.867C37.6999 100.893 37.779 100.898 37.8556 100.882C37.9321 100.866 38.0035 100.83 38.0626 100.776C38.1267 100.683 38.1579 100.569 38.1508 100.454C38.1508 100.121 38.1067 99.7461 38.3136 99.494C38.4286 99.3549 38.6067 99.2924 38.7255 99.1472C38.8026 99.0444 38.852 98.9216 38.8686 98.7917C38.8851 98.6619 38.8681 98.5297 38.8194 98.4092C38.9956 98.7298 39.0627 99.1351 38.8328 99.3992C38.714 99.5364 38.5378 99.6009 38.4209 99.7481C38.214 99.9981 38.2676 100.373 38.26 100.706C38.2672 100.822 38.2353 100.937 38.1699 101.031C38.1106 101.084 38.0392 101.12 37.9628 101.136C37.8863 101.152 37.8072 101.147 37.7331 101.121C37.586 101.068 37.4304 101.046 37.2753 101.057C37.1081 101.107 36.9621 101.216 36.8614 101.365C36.3442 102.004 36.1258 102.724 35.8882 103.511C35.8849 103.591 35.8657 103.67 35.8318 103.743C35.7979 103.815 35.7501 103.88 35.6913 103.931C35.6326 103.983 35.5643 104.022 35.4907 104.045C35.417 104.067 35.3398 104.074 35.2637 104.063C34.1928 104.089 33.0778 104.093 32.1046 103.62C31.923 103.543 31.7618 103.422 31.6352 103.265C31.572 103.173 31.5246 103.07 31.4954 102.96C31.5049 102.978 31.5158 102.995 31.5279 103.011Z" fill="black"/>
<path opacity="0.1" d="M38.5434 97.9105C38.4959 97.8523 38.4618 97.7833 38.4438 97.7089C38.4304 97.6289 38.4304 97.547 38.4438 97.4669C38.4901 97.0157 38.451 96.5593 38.3289 96.124L38.348 96.1018C38.5394 96.6141 38.6097 97.1677 38.553 97.7149C38.5443 97.7797 38.5411 97.8452 38.5434 97.9105Z" fill="black"/>
</g>
<path opacity="0.1" d="M36.4285 105.808C36.4285 105.808 32.0222 106.242 31.6582 105.532L36.4285 105.808Z" fill="black"/>
<path opacity="0.1" d="M27.9856 103.556C27.9856 103.556 25.5507 103.461 24.9817 104.399L27.9856 103.556Z" fill="black"/>
</g>
<defs>
<linearGradient id="paint0_linear" x1="105.647" y1="138.819" x2="105.647" y2="30.2688" gradientUnits="userSpaceOnUse">
<stop stop-color="#808080" stop-opacity="0.25"/>
<stop offset="0.54" stop-color="#808080" stop-opacity="0.12"/>
<stop offset="1" stop-color="#808080" stop-opacity="0.1"/>
</linearGradient>
<linearGradient id="paint1_linear" x1="39244.5" y1="67041.6" x2="39244.5" y2="36741.7" gradientUnits="userSpaceOnUse">
<stop stop-color="#808080" stop-opacity="0.25"/>
<stop offset="0.54" stop-color="#808080" stop-opacity="0.12"/>
<stop offset="1" stop-color="#808080" stop-opacity="0.1"/>
</linearGradient>
<linearGradient id="paint2_linear" x1="-32820.5" y1="66377.6" x2="-31579.7" y2="36905.3" gradientUnits="userSpaceOnUse">
<stop stop-color="#808080" stop-opacity="0.25"/>
<stop offset="0.54" stop-color="#808080" stop-opacity="0.12"/>
<stop offset="1" stop-color="#808080" stop-opacity="0.1"/>
</linearGradient>
<clipPath id="clip0">
<rect width="219" height="174" fill="white"/>
</clipPath>
</defs>
</svg>
